<svg width="1175" height="1440" viewBox="0 0 1175 1440" fill="none" xmlns="http://www.w3.org/2000/svg">
<path d="M968.18 12H180.656C121.934 19.1692 1 12 1 159.5C1 296.6 129.492 293.933 180.656 296.6H968.18C1037.66 297.934 1157.81 289.304 1155.23 428C1152.66 566.696 1042.5 559.693 968.18 559.693L180.656 566.696C115.829 569.363 0.999776 566.696 1 729.253C1.00019 866.301 125.713 872.137 180.656 866.301H968.18C1036.79 865.968 1174 866.301 1174 1016.85C1174 1149.4 1039.73 1149.4 968.18 1149.4H180.656C120.771 1154.07 1 1149.4 1 1293.45C1 1429 120.771 1427.17 180.656 1429H968.18" stroke="black" stroke-dasharray="12 12"/>
<circle cx="978.5" cy="11.5" r="11" stroke="black"/>
<circle cx="978.5" cy="1428.5" r="11" stroke="black"/>
</svg>
