<svg width="49" height="48" viewBox="0 0 49 48" fill="none" xmlns="http://www.w3.org/2000/svg">
<g clip-path="url(#clip0_199_2361)">
<mask id="mask0_199_2361" style="mask-type:alpha" maskUnits="userSpaceOnUse" x="4" y="0" width="41" height="40">
<path fill-rule="evenodd" clip-rule="evenodd" d="M24.3408 38.5799C34.8959 38.5799 43.4524 31.7334 43.4524 21.1482C43.4524 10.5631 34.8959 1.98214 24.3408 1.98214C13.7858 1.98214 5.22924 10.5631 5.22924 21.1482C5.22924 31.7334 13.7858 38.5799 24.3408 38.5799ZM24.6867 39.4471C35.9104 39.4471 44.6631 32.4039 44.6631 21.1482C44.6631 9.89254 35.5645 0.768 24.3408 0.768C13.1171 0.768 4.01855 9.89254 4.01855 21.1482C4.01855 32.4039 13.4631 39.4471 24.6867 39.4471Z" fill="black"/>
</mask>
<g mask="url(#mask0_199_2361)">
<rect x="4.52051" y="0.874398" width="40.846" height="28.3232" fill="url(#paint0_linear_199_2361)" stroke="url(#paint1_linear_199_2361)"/>
</g>
<path d="M17.2174 13.3994C17.079 13.1912 17.2174 13.0814 17.3039 13.0525C17.6498 12.7056 18.3935 11.9424 18.601 11.6649C18.8605 11.318 20.763 10.2773 21.8007 10.7977C22.8385 11.318 23.5303 11.7516 23.8762 13.0525C24.1529 14.0932 23.5879 15.3362 23.2708 15.8277C23.0402 16.0589 22.7174 16.7643 23.2708 17.7356C23.8243 18.7069 24.0203 19.8748 24.0491 20.3373L24.1356 24.847C24.1933 24.9916 24.0491 25.35 23.0114 25.6275C21.7142 25.9744 21.1089 25.7143 20.59 25.7143C20.0712 25.7143 19.5523 25.5408 19.2929 25.4541C19.0853 25.3847 19.0334 25.2517 19.0334 25.1939V24.4134C19.0334 24.2746 19.0911 24.2399 19.1199 24.2399C19.4082 24.211 20.0539 24.1185 20.3306 23.9798C20.6765 23.8063 22.0602 23.1992 22.579 22.1586C23.0979 21.1179 23.2708 20.5975 23.2708 20.3373C23.2708 20.0772 23.0979 19.9037 23.0979 20.3373C23.0979 20.6842 22.579 21.6382 22.3196 22.0718C21.4548 23.3727 20.763 23.3727 20.2441 23.6329C19.7253 23.893 18.6875 23.9798 17.9957 24.1532C17.3039 24.3267 17.3039 24.1532 17.0444 24.0665C16.785 23.9798 16.4391 24.2399 16.2661 24.4134C16.1278 24.5522 15.9779 24.4712 15.9202 24.4134L15.3149 23.8063L13.6718 21.9851C13.4124 21.6671 12.8416 20.9791 12.6341 20.771C12.4265 20.5628 12.49 20.3952 12.5476 20.3373C12.8243 19.9211 12.7782 18.256 12.7206 17.4754H13.0665C13.2048 17.4754 13.2394 17.7067 13.2394 17.8223V19.2966C13.2394 19.3464 13.2427 19.3839 13.2481 19.4118L13.4989 17.7356C13.5277 17.4042 13.7583 16.9551 14.0177 17.4754C14.1042 17.6489 13.9563 18.0322 13.8448 18.2559C13.7944 18.357 13.5972 18.8774 13.4414 19.2558C13.765 18.6692 14.3177 17.7714 14.6231 17.6489C14.969 17.5101 14.9402 17.8223 14.8825 17.9958C14.4501 18.4583 13.5508 19.4354 13.4124 19.6435C13.274 19.8517 13.4124 19.7881 13.4989 19.7303C14.2195 19.1232 15.7473 17.9091 16.0932 17.9091C16.4391 17.9091 16.2373 18.1403 16.0932 18.256C15.1708 18.9208 13.274 20.2853 13.0665 20.4241C12.807 20.5975 12.8935 20.6842 13.1529 20.6842C13.3605 20.6842 14.3925 19.9326 14.8825 19.5568C15.4302 19.181 16.5429 18.4121 16.6121 18.3427C16.6812 18.2733 16.7562 18.3716 16.785 18.4294C17.2462 19.0943 18.2724 20.5628 18.6875 21.1179C19.1026 21.6729 19.3217 21.4069 19.3793 21.2046C19.7253 19.4701 20.6765 18.256 20.8495 17.8223C20.9878 17.4754 20.7342 17.5043 20.59 17.5622C20.4747 17.5911 20.1749 17.6315 19.8982 17.5622C19.5523 17.4754 19.0334 16.9551 18.947 16.7816C18.8778 16.6429 18.8028 16.6082 18.774 16.6082C18.2551 16.5215 18.3416 16.348 18.4281 16.2613C18.5146 16.1746 18.5146 15.9144 18.5146 15.6542C18.5146 15.394 17.3904 13.6596 17.2174 13.3994Z" fill="#00AFCE"/>
<path d="M23.8762 25.7143C22.9076 26.4774 20.3018 26.0901 19.1199 25.801C18.9098 25.752 19.2929 26.6682 19.2929 27.2753C19.2929 27.7609 19.6964 29.7903 19.8982 30.7443C20.0423 31.3802 20.3479 32.7563 20.4171 33.1726C20.5036 33.6929 20.4574 33.6247 20.5036 33.7796C20.5479 33.9284 20.6765 34.2133 20.6765 34.3867C20.6765 34.5023 20.6592 34.7509 20.59 34.8203C20.5036 34.907 21.0224 34.9938 21.1954 35.0805C21.3337 35.1499 21.253 34.936 21.1954 34.8203C21.1377 34.7336 21.1089 34.7336 21.1089 34.5777C21.1089 34.4795 21.0796 34.3635 21.0508 34.3057C21.022 34.2768 21.0224 34.0918 21.0224 33.9531C21.0224 33.8143 20.9648 33.664 20.9359 33.6062L20.4171 30.9177C20.2153 30.0216 19.8117 28.0385 19.8117 27.2753C19.8117 26.3213 20.4171 28.4027 20.59 29.877C20.7284 31.0565 21.1089 32.6233 21.2819 33.2593L21.3683 34.0398C21.3683 34.1265 21.3899 34.2363 21.3899 34.3057C21.3899 34.3585 21.3899 34.4258 21.3899 34.476C21.3899 34.476 21.3794 34.6627 21.3899 34.7313C21.4098 34.8607 21.4747 35.4974 21.4747 35.1569C21.4747 35.3304 21.5586 35.0978 21.6278 35.1672C21.7142 35.2539 22.9249 35.5141 23.3573 35.5141C23.7897 35.5141 23.6168 35.4274 23.6168 35.2539C23.6168 35.1152 23.5015 34.8492 23.4438 34.7336C23.4245 34.6462 23.4245 34.5454 23.4245 34.476C23.4245 34.3908 23.4245 34.4197 23.4245 34.3908C23.4245 34.322 23.4245 34.3147 23.4245 34.2206C23.4245 34.1355 23.4245 34.2206 23.4245 34.1355C23.4533 33.326 23.5093 33.0289 23.5093 32.6033C23.5093 31.99 23.8929 30.6791 23.5093 30.3901C23.1702 30.1348 23.255 29.4538 23.6168 27.8365C23.9786 26.2192 23.9915 25.6275 23.8762 25.7143Z" fill="#00AFCE"/>
<path d="M13.8448 20.771C13.6372 20.7016 13.643 20.8577 13.6718 20.9444C13.7871 21.2335 14.1215 21.8637 14.5366 22.0718C14.9517 22.28 14.8825 22.0429 14.796 21.8984C14.5654 21.5515 14.0523 20.8404 13.8448 20.771Z" fill="#FFF9F0"/>
<path d="M15.2284 22.4187C14.8133 22.3494 14.8825 22.5633 14.969 22.6789C14.9978 22.7078 15.09 22.835 15.2284 23.1125C15.3668 23.39 15.9779 23.6329 16.2661 23.7196H16.958V22.5055C16.8715 22.332 16.6121 21.9331 16.2661 21.7249C15.9202 21.5168 15.8638 21.7526 15.9503 21.926L16.1797 22.332C16.2085 22.3609 16.2316 22.4361 16.0932 22.5055C15.9202 22.5922 15.7473 22.5055 15.2284 22.4187Z" fill="#FFF9F0"/>
<path d="M17.5633 23.8063C17.84 23.9451 17.7651 23.7485 17.7363 23.6329C17.7041 23.504 17.6498 23.1125 17.6498 22.7656C17.6498 22.4796 17.8227 22.4765 17.9092 22.5055C18.4857 22.5633 19.7771 22.4014 20.3306 21.2913C21.0224 19.9037 21.3683 19.5568 21.6278 19.2099C21.8353 18.9324 22.2331 18.9208 22.4061 18.9498C22.5214 19.0076 22.7347 19.0885 22.6655 18.9498C22.5963 18.811 22.4061 18.7763 22.3196 18.7763C22.1466 18.7763 21.7315 18.8283 21.4548 19.0365C21.1089 19.2967 20.5036 20.3373 20.0712 21.2046C19.6388 22.0718 18.2551 22.2453 17.8227 22.2453C17.4768 22.2453 17.3904 22.4187 17.3904 22.5055C17.3327 22.8813 17.2866 23.6676 17.5633 23.8063Z" fill="#FFF9F0"/>
<path d="M20.9359 26.3213C20.8668 26.3907 20.9071 26.5815 20.9359 26.6682C21.0743 27.4314 21.6278 27.68 21.8872 27.7089C22.2043 27.7089 22.7001 27.6742 22.1466 27.5355C21.4548 27.362 21.1089 26.4948 21.1089 26.4081C21.1089 26.3213 21.0224 26.2346 20.9359 26.3213Z" fill="#FFF9F0"/>
<path d="M18.8605 15.8277C18.8893 15.6831 18.8951 15.342 18.6875 15.1339C18.48 14.9257 18.284 14.5268 18.2551 14.3533C18.2551 14.3533 18.1687 14.0064 18.4281 14.0064C18.6875 14.0064 19.2064 13.833 19.3793 13.6596C19.6388 13.3994 19.7253 13.833 19.7253 13.833C19.8117 14.0064 19.708 14.0585 19.9847 14.2666C20.2614 14.4748 20.6477 14.9315 20.8495 15.1339C20.9648 15.1917 21.1781 15.2033 21.1089 14.787C21.0397 14.3707 21.4836 14.3244 21.7142 14.3534C22.4061 14.6135 22.0602 15.3941 21.8007 15.5675C21.5932 15.7063 21.7142 15.7988 21.8007 15.8277L22.3196 16.0878C22.5963 16.1572 22.6079 16.6949 22.579 16.9551V17.3887C22.579 17.4754 22.2331 17.5622 22.1466 17.5622C22.0775 17.5622 21.9449 17.62 21.8872 17.6489C21.4029 17.9958 21.2819 17.9669 21.2819 17.9091C21.1954 17.2153 21.2819 17.302 21.4548 17.0418C21.5932 16.8337 21.3972 16.8973 21.2819 16.9551L21.1089 17.0418C20.9648 17.0996 20.5727 17.2153 20.1576 17.2153C19.7426 17.2153 19.4082 16.8106 19.2929 16.6082C19.2352 16.4637 19.068 16.1919 18.8605 16.2613C18.6529 16.3307 18.774 16.0011 18.8605 15.8277Z" fill="#FFF9F0"/>
<path d="M25.9556 20.9944C25.8865 24.6715 24.2261 29.4934 24.2261 29.7536C24.1982 29.919 24.413 30.0278 24.572 30.1872C24.8314 30.4474 25.1773 30.5341 25.3503 30.4474C25.4942 30.3752 25.4965 30.1547 25.5233 30.0138C25.8 28.5568 26.3304 26.7472 26.561 26.0245L25.9556 29.4934C25.8692 30.0138 25.6097 30.8984 26.3016 30.9677C26.9934 31.0371 27.2528 30.6208 27.2528 30.3607C27.2528 29.2091 27.4258 27.0651 27.6852 26.1979C27.6275 27.6144 27.5122 30.4647 27.5122 30.5341C27.5122 30.7076 27.5122 30.7076 27.5987 30.7943C28.0311 31.2279 28.55 31.0545 28.8094 30.9677C29.017 30.8984 28.9911 30.6561 28.9824 30.5341C28.8094 28.1058 28.8382 26.6893 28.8959 26.2846C29.04 27.5277 29.3456 30.1352 29.4148 30.6208C29.4839 31.1065 30.2507 31.0256 30.6254 30.881C30.8849 30.7809 30.8849 30.4474 30.6254 29.927C30.4273 29.5297 30.1066 27.2675 30.0201 26.1112C30.366 27.412 31.0578 30.0485 31.0578 30.1872C31.0578 30.2739 31.1155 30.4185 31.1443 30.4474C31.4037 30.6208 32.2685 30.1005 32.2685 29.8403C32.2685 29.5276 30.9714 25.6776 30.9714 25.0705C30.9714 24.5848 30.7984 24.5212 30.7119 24.5501C30.3948 24.608 29.4839 24.5328 28.377 23.7696C26.9934 22.8156 26.6475 20.9944 26.7339 20.6475C26.8031 20.37 26.8781 20.4741 26.9069 20.5608C26.9646 20.9944 27.2701 22.0698 28.0311 22.9024C28.9824 23.9431 29.5012 23.9431 30.8849 24.2032C32.2685 24.4634 32.0956 24.3767 32.182 24.29C32.2512 24.2206 32.3838 24.2032 32.4415 24.2032C32.6144 24.2321 33.0987 24.2379 33.6522 24.0298C34.344 23.7696 35.0358 23.1625 34.7764 22.6422C34.5688 22.2259 34.0557 22.2953 33.8251 22.382C33.8828 22.2664 33.9289 21.9831 33.6522 21.775C33.3754 21.5668 32.7297 21.9773 32.4415 22.2086C30.9886 22.0698 30.6254 21.8039 30.6254 21.6882C30.366 20.1272 29.7607 18.6529 29.6742 18.306C29.605 18.0285 29.5877 17.9591 29.5012 17.9591C29.2418 17.9591 28.6365 17.6122 27.9446 17.4387C27.3912 17.3 27.2528 17.2653 27.1663 17.352C26.4745 18.0458 26.0709 20.0694 25.9556 20.9944Z" fill="#73C134"/>
<path d="M27.0798 31.1412C26.9415 31.2799 26.7339 31.2568 26.6475 31.2279C26.6204 31.2204 26.6362 31.2826 26.6475 31.3146V35.2172L26.561 35.4774L27.1663 35.2172V31.835C27.1952 31.5459 27.2182 31.0024 27.0798 31.1412Z" fill="#73C134"/>
<path d="M27.5122 31.1412C27.4431 31.1412 27.4258 31.199 27.4258 31.2279V35.3907L29.2418 34.8703V32.3553C29.2418 31.9217 29.3283 31.6615 29.4147 31.4881C29.5012 31.3146 29.4147 31.3146 29.3283 31.1412C29.2591 31.0024 29.1265 31.0834 29.0688 31.1412C28.9305 31.2799 28.6076 31.3146 28.4635 31.3146C27.7717 31.3146 27.5987 31.1412 27.5122 31.1412Z" fill="#73C134"/>
<path d="M29.3558 17.3324C29.6152 17.3324 29.6152 17.0722 29.6152 17.0722C29.6152 17.0722 29.7017 16.7253 29.7017 16.5242C29.7016 16.3231 30.5664 15.9171 30.9988 15.7437C31.2064 15.4661 31.2006 14.992 31.1718 14.7897C31.4312 14.4428 31.1718 14.3561 31.1718 14.1826C31.1718 14.0092 31.6906 13.749 31.3447 13.5756C30.9683 13.3868 30.6817 13.1419 30.6529 12.9685C30.6529 11.6676 30.307 11.1473 29.9611 10.9738C30.134 11.6676 29.9323 12.2169 29.8746 12.4481C29.6152 12.8818 29.2914 13.3027 28.6639 13.6623C28.0941 13.9888 28.0586 14.2126 28.0586 14.3561C28.0586 14.7897 28.491 14.8764 28.6639 14.9631C28.8369 15.0499 28.8369 15.2233 28.6639 15.2233C28.4452 15.2233 28.1451 15.1366 28.0586 15.0499C27.3668 14.3561 27.7981 13.7205 28.1451 13.5755C29.1828 13.1419 29.7881 12.4482 29.7881 11.4942C29.7881 11.4362 29.7881 10.8871 29.6152 10.8004C28.1619 10.0717 26.9344 10.7137 26.0696 11.4942C25.1953 12.2832 25.2048 13.749 25.4643 14.0959C25.6718 14.3734 25.4931 14.4428 25.3778 14.4428C25.0319 14.5006 24.167 14.703 24.0806 15.5702C23.9942 16.4374 24.1672 16.6386 24.513 17.5058C24.8589 18.3731 24.3977 18.9801 24.0806 19.2403C24.1671 19.2403 24.3401 19.327 24.6859 19.2403C25.2913 18.9801 25.6372 18.5953 25.8102 17.9985C25.9831 17.4017 25.8102 16.264 25.6372 15.9171C25.4642 15.5702 25.8101 15.3691 26.0696 15.4835C26.3291 15.5979 27.0209 16.6386 27.1074 16.7253C27.1939 16.812 27.5398 16.812 27.7992 16.8988C28.0586 16.9855 29.0964 17.3324 29.3558 17.3324Z" fill="#73C134"/>
<path d="M32.2676 23.8091V22.7684C32.2676 22.5082 32.8729 22.3347 33.2188 22.1613C33.4956 22.0225 33.5071 22.1613 33.4783 22.248L33.1324 22.5949C33.0747 22.6816 33.1151 22.8204 33.7377 22.6817C34.3603 22.5429 34.4007 22.7973 34.343 22.9418C34.2047 23.705 32.9017 23.838 32.2676 23.8091Z" fill="#FFF9F0"/>
<path d="M28.807 20.4262C29.1529 18.8652 28.0191 18.5821 27.4257 18.5821C27.3409 18.5821 27.2779 18.3788 27.4257 18.3607C28.8668 18.1851 29.3259 19.559 29.0665 20.4262C29.6718 21.8138 30.7102 22.4586 31.3251 22.488C31.7473 22.5082 31.8338 22.608 31.8338 22.7514L31.8338 23.7223C31.8338 24.156 31.6557 24.0709 31.6608 23.8091C31.7078 22.7514 31.6848 22.7791 31.4878 22.7684C29.8772 22.6805 28.9555 21.0436 28.807 20.4262Z" fill="#FFF9F0"/>
<mask id="mask1_199_2361" style="mask-type:alpha" maskUnits="userSpaceOnUse" x="32" y="16" width="3" height="8">
<path d="M33.3738 22.2801C33.5173 21.3964 33.4336 20.746 33.3738 20.5312H34.0019C33.8224 20.7153 33.9122 21.5437 34.0019 22.2801C34.0737 22.8692 33.9122 23.0778 33.8224 23.1085C33.6131 23.2006 33.2302 23.1637 33.3738 22.2801Z" fill="#18B6C2"/>
<path d="M34.0019 20.4391H33.3738C33.3439 20.4391 33.284 20.4207 33.284 20.3471C33.284 20.2735 33.3439 20.255 33.3738 20.255H34.0019C34.0318 20.255 34.0916 20.2735 34.0916 20.3471C34.0916 20.4207 34.0318 20.4391 34.0019 20.4391Z" fill="#18B6C2"/>
<path d="M34.1814 20.0709H33.1943C33.1943 19.9789 33.1584 19.7948 33.0148 19.7948C32.8713 19.7948 32.8952 19.6107 32.9251 19.5187H34.4506C34.4805 19.6107 34.5044 19.7948 34.3608 19.7948C34.2173 19.7948 34.1814 19.9789 34.1814 20.0709Z" fill="#18B6C2"/>
<path d="M32.7456 19.3346C32.7456 19.4082 32.8055 19.4266 32.8354 19.4266H34.5403C34.5702 19.4266 34.63 19.4082 34.63 19.3346C34.63 19.2609 34.5702 19.2425 34.5403 19.2425H32.8354C32.8055 19.2425 32.7456 19.2609 32.7456 19.3346Z" fill="#18B6C2"/>
<path d="M33.8224 17.9539L33.7327 18.0459C33.2302 18.4877 33.2242 18.905 33.284 19.0584C32.8354 18.8743 32.3867 18.23 33.1046 17.6777C33.6789 17.2359 33.7626 16.8186 33.7327 16.6652C34.4506 17.1807 34.3908 17.8618 34.2711 18.138C34.4147 18.138 34.4506 17.8311 34.4506 17.6777L34.5403 17.8618C34.7557 18.7455 34.2113 19.0277 33.9122 19.0584C34.1275 18.6902 33.9421 18.1686 33.8224 17.9539Z" fill="#18B6C2"/>
<path d="M33.1943 16.205C33.4934 16.3277 33.8583 16.7757 32.9251 17.5857C33.1644 17.3402 33.5532 16.7204 33.1943 16.205Z" fill="#18B6C2"/>
<path d="M33.3738 22.2801C33.5173 21.3964 33.4336 20.746 33.3738 20.5312H34.0019C33.8224 20.7153 33.9122 21.5437 34.0019 22.2801C34.0737 22.8692 33.9122 23.0778 33.8224 23.1085C33.6131 23.2006 33.2302 23.1637 33.3738 22.2801Z" stroke="#18B6C2" stroke-width="0.1"/>
<path d="M34.0019 20.4391H33.3738C33.3439 20.4391 33.284 20.4207 33.284 20.3471C33.284 20.2735 33.3439 20.255 33.3738 20.255H34.0019C34.0318 20.255 34.0916 20.2735 34.0916 20.3471C34.0916 20.4207 34.0318 20.4391 34.0019 20.4391Z" stroke="#18B6C2" stroke-width="0.1"/>
<path d="M34.1814 20.0709H33.1943C33.1943 19.9789 33.1584 19.7948 33.0148 19.7948C32.8713 19.7948 32.8952 19.6107 32.9251 19.5187H34.4506C34.4805 19.6107 34.5044 19.7948 34.3608 19.7948C34.2173 19.7948 34.1814 19.9789 34.1814 20.0709Z" stroke="#18B6C2" stroke-width="0.1"/>
<path d="M32.7456 19.3346C32.7456 19.4082 32.8055 19.4266 32.8354 19.4266H34.5403C34.5702 19.4266 34.63 19.4082 34.63 19.3346C34.63 19.2609 34.5702 19.2425 34.5403 19.2425H32.8354C32.8055 19.2425 32.7456 19.2609 32.7456 19.3346Z" stroke="#18B6C2" stroke-width="0.1"/>
<path d="M33.8224 17.9539L33.7327 18.0459C33.2302 18.4877 33.2242 18.905 33.284 19.0584C32.8354 18.8743 32.3867 18.23 33.1046 17.6777C33.6789 17.2359 33.7626 16.8186 33.7327 16.6652C34.4506 17.1807 34.3908 17.8618 34.2711 18.138C34.4147 18.138 34.4506 17.8311 34.4506 17.6777L34.5403 17.8618C34.7557 18.7455 34.2113 19.0277 33.9122 19.0584C34.1275 18.6902 33.9421 18.1686 33.8224 17.9539Z" stroke="#18B6C2" stroke-width="0.1"/>
<path d="M33.1943 16.205C33.4934 16.3277 33.8583 16.7757 32.9251 17.5857C33.1644 17.3402 33.5532 16.7204 33.1943 16.205Z" stroke="#18B6C2" stroke-width="0.1"/>
</mask>
<g mask="url(#mask1_199_2361)">
<path d="M32.1963 15.8261H35.0678V22.4535L33.8115 22.6376C33.4734 22.7125 32.9142 22.8217 32.8244 22.7297C32.7347 22.6376 32.1963 15.8261 32.1963 15.8261Z" fill="#73C134"/>
</g>
<path d="M24.6121 35.2914C21.4086 35.2914 20.1151 34.4579 19.9368 34.3351C19.7585 34.2124 19.4535 34.4357 19.7864 34.6812C20.2025 34.9881 22.3502 35.7637 24.6121 35.726C28.2978 35.6646 29.5451 34.8533 29.8924 34.6812C30.2397 34.5091 30.0665 34.0744 29.8068 34.2482C29.547 34.4221 27.8155 35.2914 24.6121 35.2914Z" fill="url(#paint2_linear_199_2361)"/>
<path d="M42.5518 24.5354L44.6297 24.6223" stroke="#FFF9F0"/>
<path d="M26.0807 38.5076C26.927 38.253 26.8167 38.739 30.6716 37.2906C33.6204 36.1827 39.1367 31.186 39.9845 29.9436C40.1112 29.8059 40.6342 29.7943 40.0408 29.653C39.9761 29.658 39.5925 28.9596 39.6905 29.6976C39.6905 29.7827 39.4261 29.955 39.2436 30.0757C36.8197 31.6784 35.5902 33.1403 32.5854 34.1605C29.5806 35.1806 29.6178 32.2581 30.3791 31.9934C31.1403 31.7288 33.5746 30.209 34.6082 28.9344C35.6419 27.6598 38.5973 25.5504 40.2024 24.9961C42.4685 24.214 48.8184 25.2015 48.8184 25.2015L48.069 33.1505C48.069 33.1505 43.2476 32.7557 41.9575 33.8359C39.0173 36.2979 36.1411 38.2213 35.9529 38.3338C35.7646 38.4462 34.0339 39.2198 33.1824 39.5507C28.6502 41.3163 25.8349 40.913 25.4465 40.5874C24.5468 39.8336 25.2343 38.7622 26.0807 38.5076Z" fill="#73C134"/>
<path d="M3.83301 24.6223L5.9109 24.5354" stroke="#FFF9F0"/>
<path d="M23.4983 38.6826C22.652 38.4281 22.4909 38.9997 18.6361 37.5514C14.7812 36.1031 6.4577 27.5987 10.3245 29.8161C12.8446 31.2613 13.7266 32.9684 16.7313 33.9886C19.7361 35.0087 19.6898 32.2592 18.9286 31.9946C18.1673 31.7299 15.733 30.2102 14.6994 28.9355C13.6658 27.6609 10.7103 25.5515 9.10522 24.9973C6.83909 24.2152 0.489218 25.2027 0.489218 25.2027L1.23866 33.1517C1.23866 33.1517 6.06005 32.7569 7.35009 33.8371C10.2903 36.2991 10.5889 36.2834 13.4413 38.4218C14.7124 39.1004 15.1871 39.3948 16.0387 39.7257C20.5708 41.4913 23.5606 40.8641 23.949 40.5384C24.8487 39.7846 24.3446 38.9372 23.4983 38.6826Z" fill="#0DB5D3"/>
<path d="M39.4711 28.3267C39.3094 28.1603 39.1322 28.3461 39.2187 28.6867C39.4994 29.7918 40.1513 30.0694 41.1983 30.0354C42.1905 29.7669 41.5722 29.5056 41.5666 29.5047C40.4861 29.4249 39.8207 28.6867 39.4711 28.3267Z" fill="#FFF9F0"/>
<path d="M47.7515 45.9564C47.7421 45.5798 47.7373 45.2235 47.7373 44.8875C47.7373 44.5514 47.7563 44.114 47.7943 43.5754C48.2002 43.5134 48.5966 43.4824 48.9835 43.4824V43.9222C48.7153 43.9222 48.466 43.9305 48.2358 43.9472C48.2263 44.2141 48.2204 44.4191 48.218 44.5621C48.3984 44.5359 48.612 44.5204 48.8589 44.5156L48.9265 44.9089C48.7675 44.9113 48.5289 44.9292 48.2109 44.9625C48.2109 45.2485 48.212 45.4547 48.2144 45.581C48.4209 45.5643 48.6678 45.5286 48.955 45.4738L49.0155 45.867C48.8138 45.96 48.5752 46.0065 48.2999 46.0065L47.7515 45.9564Z" fill="#73C134"/>
<path d="M45.835 45.9743C45.8658 45.4023 45.8812 44.8922 45.8812 44.4441C45.8812 43.9961 45.8801 43.7017 45.8777 43.5611C46.1388 43.4372 46.4106 43.3752 46.6931 43.3752C46.9019 43.3752 47.0764 43.4419 47.2165 43.5754C47.3589 43.7089 47.4301 43.8972 47.4301 44.1403C47.4301 44.4215 47.2319 44.692 46.8355 44.9518C47.0515 45.2235 47.2722 45.5226 47.4977 45.8492L47.1559 46.103C47.0064 45.8766 46.7382 45.5071 46.3512 44.9947C46.3441 45.3618 46.3334 45.7062 46.3192 46.0279L45.835 45.9743ZM46.3619 44.7516C46.5376 44.6682 46.6871 44.5657 46.8106 44.4441C46.934 44.3202 46.9957 44.2082 46.9957 44.1081C46.9957 44.008 46.966 43.9305 46.9067 43.8757C46.8497 43.8209 46.7738 43.7935 46.6788 43.7935C46.5839 43.7935 46.4794 43.8137 46.3655 43.8543C46.3655 44.257 46.3643 44.5562 46.3619 44.7516Z" fill="#73C134"/>
<path d="M44.3745 45.102C44.3745 45.2259 44.4018 45.3367 44.4564 45.4344C44.511 45.5322 44.5751 45.581 44.6487 45.581C44.7246 45.581 44.7852 45.5477 44.8303 45.4809C44.8754 45.4142 44.9074 45.326 44.9264 45.2164C44.9596 45.0233 44.9762 44.8005 44.9762 44.5478C44.9762 44.2928 44.9608 43.9198 44.93 43.4288L45.4142 43.4789C45.4474 43.9698 45.464 44.3035 45.464 44.4799C45.464 44.6563 45.4617 44.7802 45.4569 44.8517C45.4522 44.9208 45.4427 45.0019 45.4284 45.0948C45.4142 45.1878 45.3952 45.2748 45.3715 45.3558C45.3477 45.4368 45.3157 45.5179 45.2753 45.5989C45.235 45.6799 45.1875 45.749 45.1329 45.8063C45.0119 45.9373 44.8469 46.0029 44.638 46.0029C44.4315 46.0029 44.2546 45.9099 44.1075 45.724C43.9603 45.5381 43.8867 45.3308 43.8867 45.102C43.8867 44.5991 43.914 44.0628 43.9686 43.4932L44.4528 43.5396C44.4006 44.0616 44.3745 44.5824 44.3745 45.102Z" fill="#73C134"/>
<path d="M42.8346 45.9493C42.8108 45.5274 42.799 45.1604 42.799 44.8481C42.799 44.5335 42.8061 44.2058 42.8203 43.865L42.386 43.9258L42.3076 43.511C42.5402 43.4705 42.7705 43.4407 42.9984 43.4217L43.6642 43.3859L43.7318 43.7828C43.6013 43.7899 43.4541 43.8006 43.2903 43.8149C43.2761 44.1581 43.269 44.4727 43.269 44.7588C43.269 45.0448 43.2737 45.4547 43.2832 45.9886L42.8346 45.9493Z" fill="#73C134"/>
<path d="M41.0786 45.102C41.0786 45.2259 41.1059 45.3367 41.1605 45.4344C41.2151 45.5322 41.2792 45.581 41.3528 45.581C41.4287 45.581 41.4893 45.5477 41.5344 45.4809C41.5795 45.4142 41.6115 45.326 41.6305 45.2164C41.6637 45.0233 41.6803 44.8005 41.6803 44.5478C41.6803 44.2928 41.6649 43.9198 41.6341 43.4288L42.1183 43.4789C42.1515 43.9698 42.1681 44.3035 42.1681 44.4799C42.1681 44.6563 42.1658 44.7802 42.161 44.8517C42.1563 44.9208 42.1468 45.0019 42.1325 45.0948C42.1183 45.1878 42.0993 45.2748 42.0756 45.3558C42.0518 45.4368 42.0198 45.5179 41.9794 45.5989C41.9391 45.6799 41.8916 45.749 41.837 45.8063C41.716 45.9373 41.551 46.0029 41.3421 46.0029C41.1356 46.0029 40.9587 45.9099 40.8116 45.724C40.6644 45.5381 40.5908 45.3308 40.5908 45.102C40.5908 44.5991 40.6181 44.0628 40.6727 43.4932L41.1569 43.5396C41.1047 44.0616 41.0786 44.5824 41.0786 45.102Z" fill="#73C134"/>
<path d="M40.3956 43.4824V43.9222C40.1298 43.9222 39.8805 43.9305 39.6479 43.9472C39.6431 44.0163 39.6384 44.1391 39.6336 44.3154C39.6313 44.4894 39.6289 44.5967 39.6265 44.6372C39.8924 44.6015 40.106 44.5836 40.2674 44.5836L40.3386 44.9768C40.0728 44.984 39.8342 45.0007 39.623 45.0269C39.623 45.3987 39.6277 45.7264 39.6372 46.01L39.1565 45.9564C39.1518 45.5703 39.1494 45.2116 39.1494 44.8803C39.1494 44.549 39.1684 44.114 39.2064 43.5754C39.6123 43.5134 40.0087 43.4824 40.3956 43.4824Z" fill="#73C134"/>
<path d="M37.4466 44.5228C37.4561 44.4751 37.4608 44.3977 37.4608 44.2904C37.4608 44.1808 37.443 44.0807 37.4074 43.9901C37.3718 43.8972 37.3196 43.8507 37.2507 43.8507C37.1677 43.8507 37.0869 43.9591 37.0086 44.176C36.9303 44.3905 36.8911 44.6217 36.8911 44.8696C36.8911 45.1151 36.9149 45.3081 36.9623 45.4487C37.0098 45.587 37.0798 45.6561 37.1724 45.6561C37.265 45.6561 37.335 45.6132 37.3825 45.5274C37.4299 45.4416 37.4656 45.3153 37.4893 45.1484C37.4038 45.1484 37.3124 45.1568 37.2151 45.1735L37.1404 44.8195C37.3564 44.8052 37.627 44.779 37.9522 44.7409C37.9664 44.8648 37.9735 44.978 37.9735 45.0805C37.9735 45.183 37.9427 45.3105 37.8809 45.463C37.8216 45.6156 37.7314 45.7502 37.6103 45.867C37.4917 45.9838 37.3611 46.0422 37.2187 46.0422C36.9718 46.0422 36.7736 45.9457 36.6241 45.7526C36.4769 45.5596 36.4033 45.2867 36.4033 44.9339C36.4033 44.6741 36.4354 44.431 36.4995 44.2046C36.5635 43.9782 36.6585 43.7923 36.7843 43.6469C36.9101 43.5015 37.0537 43.4288 37.2151 43.4288C37.3718 43.4288 37.519 43.486 37.6566 43.6004C37.7278 43.66 37.7848 43.7458 37.8275 43.8578C37.8726 43.9675 37.8952 44.0831 37.8952 44.2046C37.8952 44.3262 37.8845 44.4441 37.8631 44.5585L37.4466 44.5228Z" fill="#0DB5D3"/>
<path d="M36.1045 43.4252L36.1081 45.0877C36.1081 45.3617 36.0986 45.6561 36.0796 45.9707L35.6808 45.9314C35.3746 45.233 35.1242 44.7099 34.9296 44.3619C34.9319 44.7147 34.9331 45.2771 34.9331 46.0494L34.5165 46.0029C34.5094 45.8551 34.5059 45.7121 34.5059 45.5739C34.5059 44.9971 34.5379 44.325 34.602 43.5575L35.0755 43.604C35.3105 44.2547 35.5218 44.7492 35.7093 45.0877C35.6951 44.3679 35.6785 43.8006 35.6595 43.3859L36.1045 43.4252Z" fill="#0DB5D3"/>
<path d="M34.124 43.4681C34.1027 43.8447 34.092 44.269 34.092 44.7409C34.092 45.2128 34.1074 45.643 34.1383 46.0315L33.6576 45.9886C33.6268 45.5024 33.6113 45.0638 33.6113 44.673C33.6113 44.2797 33.622 43.8638 33.6434 43.4252L34.124 43.4681Z" fill="#0DB5D3"/>
<path d="M32.3557 43.436C32.6334 43.436 32.847 43.5456 32.9966 43.7649C33.1485 43.9841 33.2245 44.2499 33.2245 44.5621C33.2245 44.8028 33.1865 45.0305 33.1105 45.245C33.0346 45.4571 32.9159 45.6358 32.7545 45.7812C32.5931 45.9242 32.4043 45.9957 32.1883 45.9957C32.1456 45.9957 31.9842 45.979 31.7041 45.9457C31.7373 45.4332 31.754 45.009 31.754 44.6729C31.754 44.3369 31.7433 43.9651 31.7219 43.5575C31.9522 43.4765 32.1634 43.436 32.3557 43.436ZM32.2774 45.5596C32.3865 45.5596 32.4945 45.463 32.6014 45.27C32.7106 45.0745 32.7651 44.8648 32.7651 44.6408C32.7651 44.4143 32.726 44.2284 32.6476 44.0831C32.5717 43.9377 32.4803 43.865 32.3735 43.865C32.3165 43.865 32.2631 43.8745 32.2133 43.8936C32.2228 44.2463 32.2275 44.5431 32.2275 44.7838C32.2275 45.0221 32.2204 45.2712 32.2061 45.531C32.2228 45.55 32.2465 45.5596 32.2774 45.5596Z" fill="#0DB5D3"/>
<path d="M30.4301 45.9207C30.3992 45.4297 30.3838 44.9804 30.3838 44.5729C30.3838 44.1629 30.3968 43.7911 30.423 43.4574L30.8965 43.5003C30.8609 43.9103 30.8431 44.3023 30.8431 44.6765C30.8431 45.0507 30.849 45.326 30.8609 45.5024C30.9464 45.4905 31.1564 45.4666 31.4911 45.4309L31.5623 45.8456C31.3843 45.867 31.1327 45.9028 30.8075 45.9528L30.4301 45.9207Z" fill="#0DB5D3"/>
<path d="M29.9278 43.4681C29.9064 43.8447 29.8957 44.269 29.8957 44.7409C29.8957 45.2128 29.9111 45.643 29.942 46.0315L29.4613 45.9886C29.4305 45.5024 29.415 45.0638 29.415 44.673C29.415 44.2797 29.4257 43.8638 29.4471 43.4252L29.9278 43.4681Z" fill="#0DB5D3"/>
<path d="M27.8589 45.102C27.8589 45.2259 27.8862 45.3367 27.9408 45.4344C27.9954 45.5322 28.0595 45.581 28.1331 45.581C28.209 45.581 28.2695 45.5477 28.3146 45.4809C28.3597 45.4142 28.3918 45.326 28.4108 45.2164C28.444 45.0233 28.4606 44.8005 28.4606 44.5478C28.4606 44.2928 28.4452 43.9198 28.4143 43.4288L28.8986 43.4789C28.9318 43.9698 28.9484 44.3035 28.9484 44.4799C28.9484 44.6563 28.946 44.7802 28.9413 44.8517C28.9366 44.9208 28.9271 45.0019 28.9128 45.0948C28.8986 45.1878 28.8796 45.2748 28.8558 45.3558C28.8321 45.4368 28.8001 45.5179 28.7597 45.5989C28.7194 45.6799 28.6719 45.749 28.6173 45.8063C28.4962 45.9373 28.3313 46.0029 28.1224 46.0029C27.9159 46.0029 27.739 45.9099 27.5918 45.724C27.4447 45.5381 27.3711 45.3308 27.3711 45.102C27.3711 44.5991 27.3984 44.0628 27.453 43.4932L27.9372 43.5396C27.885 44.0616 27.8589 44.5824 27.8589 45.102Z" fill="#0DB5D3"/>
<path d="M25.5738 43.5647C25.8515 43.4789 26.102 43.436 26.3251 43.436C26.5506 43.436 26.7417 43.4967 26.8983 43.6183C27.055 43.7375 27.1333 43.8852 27.1333 44.0616C27.1333 44.3262 26.9862 44.5359 26.6918 44.6908C26.9672 44.8028 27.1049 44.9899 27.1049 45.2521C27.1049 45.4452 27.004 45.618 26.8022 45.7705C26.6004 45.9207 26.3892 45.9957 26.1684 45.9957C26.1399 45.9957 25.937 45.979 25.5596 45.9457C25.5928 45.4332 25.6094 45.0019 25.6094 44.6515C25.6094 44.3011 25.5975 43.9389 25.5738 43.5647ZM26.6527 44.1117C26.6527 44.0402 26.6171 43.9806 26.5458 43.9329C26.477 43.8829 26.4022 43.8578 26.3215 43.8578C26.2432 43.8578 26.1589 43.8721 26.0687 43.9007C26.0782 44.1867 26.083 44.4024 26.083 44.5478C26.1922 44.5383 26.3144 44.4894 26.4497 44.4012C26.585 44.3107 26.6527 44.2141 26.6527 44.1117ZM26.2468 45.5596C26.3251 45.5596 26.4082 45.5286 26.496 45.4666C26.5838 45.4023 26.6277 45.3296 26.6277 45.2485C26.6277 45.1651 26.5767 45.0924 26.4746 45.0305C26.3726 44.9685 26.2408 44.9304 26.0794 44.9161C26.0747 45.1973 26.0699 45.4082 26.0652 45.5488C26.1079 45.556 26.1684 45.5596 26.2468 45.5596Z" fill="#0DB5D3"/>
<path d="M23.8265 45.4416L24.2245 45.5834C24.2045 45.7789 24.1267 46.0721 23.9911 46.4631L23.7158 46.4405C23.7697 46.0882 23.8066 45.7552 23.8265 45.4416Z" fill="#73C134"/>
<path d="M22.9115 44.3798C22.9424 44.263 22.9578 44.1653 22.9578 44.0866C22.9578 44.008 22.9365 43.9436 22.8937 43.8936C22.851 43.8412 22.7952 43.8149 22.7264 43.8149C22.6599 43.8149 22.6041 43.8483 22.559 43.915C22.5139 43.9818 22.4914 44.058 22.4914 44.1438C22.4914 44.3107 22.5863 44.4537 22.7762 44.5729C22.9661 44.6968 23.0955 44.7862 23.1643 44.841C23.2332 44.8958 23.2818 44.9459 23.3103 44.9911C23.3815 45.1079 23.4171 45.2283 23.4171 45.3522C23.4171 45.5667 23.3447 45.7383 23.1999 45.867C23.0575 45.9934 22.8961 46.0565 22.7157 46.0565C22.5021 46.0565 22.3228 45.966 22.1781 45.7848C22.0736 45.6537 21.9775 45.4905 21.8896 45.295L22.235 45.127C22.2896 45.27 22.3573 45.3916 22.438 45.4917C22.5211 45.5894 22.6089 45.6382 22.7015 45.6382C22.7608 45.6382 22.8142 45.6192 22.8617 45.581C22.9092 45.5429 22.9329 45.4857 22.9329 45.4094C22.9329 45.3308 22.9032 45.2581 22.8439 45.1913C22.7845 45.1246 22.705 45.0567 22.6053 44.9876C22.5056 44.9185 22.4285 44.8624 22.3739 44.8195C22.3193 44.7743 22.2588 44.7171 22.1923 44.6479C22.0665 44.5145 22.0036 44.3441 22.0036 44.1367C22.0036 43.927 22.076 43.7518 22.2208 43.6112C22.3656 43.4682 22.5377 43.3967 22.7371 43.3967C22.9365 43.3967 23.1038 43.4741 23.2391 43.629C23.3768 43.784 23.4456 43.9436 23.4456 44.1081C23.4456 44.2702 23.4148 44.4096 23.353 44.5264L22.9115 44.3798Z" fill="#73C134"/>
<path d="M20.5133 45.9564C20.5038 45.5798 20.499 45.2235 20.499 44.8875C20.499 44.5514 20.518 44.114 20.556 43.5754C20.9619 43.5134 21.3583 43.4824 21.7452 43.4824V43.9222C21.477 43.9222 21.2278 43.9305 20.9975 43.9472C20.988 44.2141 20.9821 44.4191 20.9797 44.5621C21.1601 44.5359 21.3737 44.5204 21.6206 44.5156L21.6882 44.9089C21.5292 44.9113 21.2907 44.9292 20.9726 44.9625C20.9726 45.2485 20.9738 45.4547 20.9761 45.581C21.1827 45.5643 21.4295 45.5286 21.7167 45.4738L21.7773 45.867C21.5755 45.96 21.3369 46.0065 21.0616 46.0065L20.5133 45.9564Z" fill="#73C134"/>
<path d="M19.1674 45.9207C19.1365 45.4297 19.1211 44.9804 19.1211 44.5729C19.1211 44.1629 19.1341 43.7911 19.1603 43.4574L19.6338 43.5003C19.5982 43.9103 19.5804 44.3023 19.5804 44.6765C19.5804 45.0507 19.5863 45.326 19.5982 45.5024C19.6837 45.4905 19.8937 45.4666 20.2284 45.4309L20.2996 45.8456C20.1216 45.867 19.87 45.9028 19.5448 45.9528L19.1674 45.9207Z" fill="#73C134"/>
<path d="M18.6651 43.4681C18.6437 43.8447 18.633 44.269 18.633 44.7409C18.633 45.2128 18.6484 45.643 18.6793 46.0315L18.1986 45.9886C18.1678 45.5024 18.1523 45.0638 18.1523 44.673C18.1523 44.2797 18.163 43.8638 18.1844 43.4252L18.6651 43.4681Z" fill="#73C134"/>
<path d="M15.7189 45.9635C15.6999 45.3439 15.6904 44.8767 15.6904 44.5621C15.6904 44.2475 15.7106 43.9114 15.751 43.5539L16.4203 43.6076C16.5034 43.9079 16.5912 44.3285 16.6838 44.8696C16.8168 44.4334 16.9342 43.9615 17.0363 43.4538L17.7093 43.5146C17.7283 44.2511 17.7377 44.7897 17.7377 45.1306C17.7377 45.469 17.7271 45.7705 17.7057 46.0351L17.2179 45.9886C17.2488 45.6883 17.2749 45.0519 17.2962 44.0795L17.2678 44.0759C17.244 44.1689 17.206 44.3285 17.1538 44.555C17.0446 45.0245 16.939 45.4249 16.8369 45.7562L16.5129 45.7276C16.4559 45.4988 16.3895 45.2032 16.3135 44.841C16.2399 44.4763 16.183 44.2082 16.1426 44.0366L16.1141 44.033C16.1355 44.8291 16.1604 45.4869 16.1889 46.0065L15.7189 45.9635Z" fill="#73C134"/>
<path d="M14.9057 44.3798C14.9365 44.263 14.952 44.1653 14.952 44.0866C14.952 44.008 14.9306 43.9436 14.8879 43.8936C14.8451 43.8412 14.7894 43.8149 14.7205 43.8149C14.6541 43.8149 14.5983 43.8483 14.5532 43.915C14.5081 43.9818 14.4855 44.058 14.4855 44.1438C14.4855 44.3107 14.5805 44.4537 14.7704 44.5729C14.9603 44.6968 15.0896 44.7862 15.1585 44.841C15.2273 44.8958 15.276 44.9459 15.3044 44.9911C15.3757 45.1079 15.4113 45.2283 15.4113 45.3522C15.4113 45.5667 15.3389 45.7383 15.1941 45.867C15.0516 45.9934 14.8902 46.0565 14.7098 46.0565C14.4962 46.0565 14.317 45.966 14.1722 45.7848C14.0678 45.6537 13.9716 45.4905 13.8838 45.295L14.2292 45.127C14.2838 45.27 14.3514 45.3916 14.4321 45.4917C14.5152 45.5894 14.603 45.6382 14.6956 45.6382C14.7549 45.6382 14.8083 45.6192 14.8558 45.581C14.9033 45.5429 14.927 45.4857 14.927 45.4094C14.927 45.3308 14.8974 45.2581 14.838 45.1913C14.7787 45.1246 14.6992 45.0567 14.5995 44.9876C14.4998 44.9185 14.4226 44.8624 14.368 44.8195C14.3134 44.7743 14.2529 44.7171 14.1864 44.6479C14.0606 44.5145 13.9977 44.3441 13.9977 44.1367C13.9977 43.927 14.0701 43.7518 14.2149 43.6112C14.3597 43.4682 14.5318 43.3967 14.7312 43.3967C14.9306 43.3967 15.0979 43.4741 15.2332 43.629C15.3709 43.784 15.4397 43.9436 15.4397 44.1081C15.4397 44.2702 15.4089 44.4096 15.3472 44.5264L14.9057 44.3798Z" fill="#73C134"/>
<path d="M12.3792 44.5228C12.3887 44.4751 12.3934 44.3977 12.3934 44.2904C12.3934 44.1808 12.3756 44.0807 12.34 43.9901C12.3044 43.8972 12.2522 43.8507 12.1833 43.8507C12.1003 43.8507 12.0196 43.9591 11.9412 44.176C11.8629 44.3905 11.8237 44.6217 11.8237 44.8696C11.8237 45.1151 11.8475 45.3081 11.8949 45.4487C11.9424 45.587 12.0124 45.6561 12.105 45.6561C12.1976 45.6561 12.2676 45.6132 12.3151 45.5274C12.3626 45.4416 12.3982 45.3153 12.4219 45.1484C12.3365 45.1484 12.2451 45.1568 12.1477 45.1735L12.073 44.8195C12.289 44.8052 12.5596 44.779 12.8848 44.7409C12.899 44.8648 12.9061 44.978 12.9061 45.0805C12.9061 45.183 12.8753 45.3105 12.8136 45.463C12.7542 45.6156 12.664 45.7502 12.543 45.867C12.4243 45.9838 12.2937 46.0422 12.1513 46.0422C11.9044 46.0422 11.7062 45.9457 11.5567 45.7526C11.4095 45.5596 11.3359 45.2867 11.3359 44.9339C11.3359 44.6741 11.368 44.431 11.4321 44.2046C11.4962 43.9782 11.5911 43.7923 11.7169 43.6469C11.8427 43.5015 11.9863 43.4288 12.1477 43.4288C12.3044 43.4288 12.4516 43.486 12.5893 43.6004C12.6605 43.66 12.7174 43.7458 12.7602 43.8578C12.8053 43.9675 12.8278 44.0831 12.8278 44.2046C12.8278 44.3262 12.8171 44.4441 12.7958 44.5585L12.3792 44.5228Z" fill="#0DB5D3"/>
<path d="M11.0372 43.4252L11.0407 45.0877C11.0407 45.3617 11.0312 45.6561 11.0122 45.9707L10.6135 45.9314C10.3073 45.233 10.0568 44.7099 9.86218 44.3619C9.86456 44.7147 9.86574 45.2771 9.86574 46.0494L9.44916 46.0029C9.44204 45.8551 9.43848 45.7121 9.43848 45.5739C9.43848 44.9971 9.47052 44.325 9.53461 43.5575L10.0082 43.604C10.2432 44.2547 10.4544 44.7492 10.6419 45.0877C10.6277 44.3679 10.6111 43.8006 10.5921 43.3859L11.0372 43.4252Z" fill="#0DB5D3"/>
<path d="M9.05667 43.4681C9.0353 43.8447 9.02462 44.269 9.02462 44.7409C9.02462 45.2128 9.04005 45.643 9.07091 46.0315L8.59023 45.9886C8.55937 45.5024 8.54395 45.0638 8.54395 44.673C8.54395 44.2797 8.55463 43.8638 8.57599 43.4252L9.05667 43.4681Z" fill="#0DB5D3"/>
<path d="M7.63992 44.5228C7.64942 44.4751 7.65416 44.3977 7.65416 44.2904C7.65416 44.1808 7.63636 44.0807 7.60076 43.9901C7.56515 43.8972 7.51293 43.8507 7.44409 43.8507C7.36101 43.8507 7.28031 43.9591 7.20197 44.176C7.12364 44.3905 7.08448 44.6217 7.08448 44.8696C7.08448 45.1151 7.10821 45.3081 7.15569 45.4487C7.20316 45.587 7.27318 45.6561 7.36576 45.6561C7.45833 45.6561 7.52836 45.6132 7.57583 45.5274C7.62331 45.4416 7.65891 45.3153 7.68265 45.1484C7.59719 45.1484 7.50581 45.1568 7.40849 45.1735L7.33371 44.8195C7.54972 44.8052 7.82032 44.779 8.14552 44.7409C8.15976 44.8648 8.16688 44.978 8.16688 45.0805C8.16688 45.183 8.13603 45.3105 8.07431 45.463C8.01497 45.6156 7.92477 45.7502 7.80371 45.867C7.68502 45.9838 7.55447 46.0422 7.41205 46.0422C7.16518 46.0422 6.96698 45.9457 6.81743 45.7526C6.67026 45.5596 6.59668 45.2867 6.59668 44.9339C6.59668 44.6741 6.62872 44.431 6.69281 44.2046C6.7569 43.9782 6.85185 43.7923 6.97766 43.6469C7.10347 43.5015 7.24707 43.4288 7.40849 43.4288C7.56515 43.4288 7.71232 43.486 7.84999 43.6004C7.92121 43.66 7.97817 43.7458 8.0209 43.8578C8.066 43.9675 8.08855 44.0831 8.08855 44.2046C8.08855 44.3262 8.07787 44.4441 8.05651 44.5585L7.63992 44.5228Z" fill="#0DB5D3"/>
<path d="M6.29791 43.4252L6.30147 45.0877C6.30147 45.3617 6.29197 45.6561 6.27298 45.9707L5.8742 45.9314C5.56799 45.233 5.31757 44.7099 5.12292 44.3619C5.1253 44.7147 5.12649 45.2771 5.12649 46.0494L4.7099 46.0029C4.70278 45.8551 4.69922 45.7121 4.69922 45.5739C4.69922 44.9971 4.73126 44.325 4.79535 43.5575L5.26891 43.604C5.5039 44.2547 5.71516 44.7492 5.90269 45.0877C5.88844 44.3679 5.87183 43.8006 5.85284 43.3859L6.29791 43.4252Z" fill="#0DB5D3"/>
<path d="M4.31936 43.4681C4.298 43.8447 4.28732 44.269 4.28732 44.7409C4.28732 45.2128 4.30274 45.643 4.3336 46.0315L3.85293 45.9886C3.82207 45.5024 3.80664 45.0638 3.80664 44.673C3.80664 44.2797 3.81732 43.8638 3.83869 43.4252L4.31936 43.4681Z" fill="#0DB5D3"/>
<path d="M1.83984 45.9743C1.8707 45.4023 1.88613 44.8922 1.88613 44.4441C1.88613 43.9961 1.88494 43.7017 1.88257 43.5611C2.14368 43.4372 2.41547 43.3752 2.69794 43.3752C2.90682 43.3752 3.08129 43.4419 3.22134 43.5754C3.36376 43.7089 3.43497 43.8972 3.43497 44.1403C3.43497 44.4215 3.23677 44.692 2.84036 44.9518C3.05637 45.2235 3.27712 45.5226 3.50262 45.8492L3.16081 46.103C3.01127 45.8766 2.74304 45.5071 2.35612 44.9947C2.349 45.3618 2.33832 45.7062 2.32408 46.0279L1.83984 45.9743ZM2.36681 44.7516C2.54246 44.6682 2.692 44.5657 2.81544 44.4441C2.93887 44.3202 3.00058 44.2082 3.00058 44.1081C3.00058 44.008 2.97091 43.9305 2.91157 43.8757C2.8546 43.8209 2.77864 43.7935 2.6837 43.7935C2.58875 43.7935 2.4843 43.8137 2.37037 43.8543C2.37037 44.257 2.36918 44.5562 2.36681 44.7516Z" fill="#0DB5D3"/>
<path d="M0.0142422 43.5647C0.291965 43.4789 0.542391 43.436 0.765519 43.436C0.991021 43.436 1.1821 43.4967 1.33877 43.6183C1.49543 43.7375 1.57377 43.8852 1.57377 44.0616C1.57377 44.3262 1.4266 44.5359 1.13226 44.6908C1.40761 44.8028 1.54528 44.9899 1.54528 45.2521C1.54528 45.4452 1.4444 45.618 1.24263 45.7705C1.04087 45.9207 0.829609 45.9957 0.608855 45.9957C0.58037 45.9957 0.377419 45.979 0 45.9457C0.0332318 45.4332 0.0498477 45.0019 0.0498477 44.6515C0.0498477 44.3011 0.0379792 43.9389 0.0142422 43.5647ZM1.09309 44.1117C1.09309 44.0402 1.05748 43.9806 0.986274 43.9329C0.917436 43.8829 0.842664 43.8578 0.761959 43.8578C0.683626 43.8578 0.59936 43.8721 0.509159 43.9007C0.518654 44.1867 0.523401 44.4024 0.523401 44.5478C0.632592 44.5383 0.754838 44.4894 0.890139 44.4012C1.02544 44.3107 1.09309 44.2141 1.09309 44.1117ZM0.687187 45.5596C0.765519 45.5596 0.848599 45.5286 0.936426 45.4666C1.02425 45.4023 1.06817 45.3296 1.06817 45.2485C1.06817 45.1651 1.01713 45.0924 0.915062 45.0305C0.812993 44.9685 0.681253 44.9304 0.519841 44.9161C0.515094 45.1973 0.510346 45.4082 0.505599 45.5488C0.548325 45.556 0.608855 45.5596 0.687187 45.5596Z" fill="#0DB5D3"/>
</g>
<defs>
<linearGradient id="paint0_linear_199_2361" x1="24.9435" y1="0.374398" x2="24.9435" y2="29.6976" gradientUnits="userSpaceOnUse">
<stop stop-color="#0DB5D3"/>
<stop offset="1" stop-color="#73C134"/>
</linearGradient>
<linearGradient id="paint1_linear_199_2361" x1="24.9435" y1="0.374398" x2="24.9435" y2="29.6976" gradientUnits="userSpaceOnUse">
<stop stop-color="#0DB5D3"/>
<stop offset="1" stop-color="#73C134"/>
</linearGradient>
<linearGradient id="paint2_linear_199_2361" x1="26.4302" y1="35.3782" x2="24.006" y2="35.4645" gradientUnits="userSpaceOnUse">
<stop stop-color="#73C134"/>
<stop offset="1" stop-color="#00AFCE"/>
</linearGradient>
<clipPath id="clip0_199_2361">
<rect width="49" height="48" fill="white"/>
</clipPath>
</defs>
</svg>
