<svg width="406" height="73" viewBox="0 0 406 73" fill="none" xmlns="http://www.w3.org/2000/svg">
<path d="M384.619 47.853C384.619 48.2063 384.091 48.4917 383.036 48.7091C381.998 48.9266 380.96 49.0353 379.922 49.0353C378.884 49.0353 378.22 48.9401 377.931 48.7499C377.641 48.5596 377.497 48.2606 377.497 47.853V22.8204C377.497 22.1409 377.982 21.5158 378.952 20.945C379.939 20.3743 381.053 20.0889 382.296 20.0889C382.738 20.0889 383.07 20.116 383.291 20.1704C383.87 20.3063 384.278 20.8907 384.517 21.9235L386.967 32.442H387.07V22.8204C387.07 22.1409 387.555 21.5158 388.525 20.945C389.495 20.3743 390.601 20.0889 391.843 20.0889C392.915 20.0889 393.596 20.415 393.885 21.0673C394.09 21.5294 394.192 21.9507 394.192 22.3312V47.853C394.192 48.2063 393.664 48.4917 392.609 48.7091C391.571 48.9266 390.422 49.0353 389.163 49.0353C387.92 49.0353 387.24 48.7771 387.121 48.2606L384.746 38.2313H384.619V47.853Z" fill="#0DA9D3"/>
<path d="M384.619 47.853C384.619 48.2063 384.091 48.4917 383.036 48.7091C381.998 48.9266 380.96 49.0353 379.922 49.0353C378.884 49.0353 378.22 48.9401 377.931 48.7499C377.641 48.5596 377.497 48.2606 377.497 47.853V22.8204C377.497 22.1409 377.982 21.5158 378.952 20.945C379.939 20.3743 381.053 20.0889 382.296 20.0889C382.738 20.0889 383.07 20.116 383.291 20.1704C383.87 20.3063 384.278 20.8907 384.517 21.9235L386.967 32.442H387.07V22.8204C387.07 22.1409 387.555 21.5158 388.525 20.945C389.495 20.3743 390.601 20.0889 391.843 20.0889C392.915 20.0889 393.596 20.415 393.885 21.0673C394.09 21.5294 394.192 21.9507 394.192 22.3312V47.853C394.192 48.2063 393.664 48.4917 392.609 48.7091C391.571 48.9266 390.422 49.0353 389.163 49.0353C387.92 49.0353 387.24 48.7771 387.121 48.2606L384.746 38.2313H384.619V47.853Z" fill="#0DA9D3"/>
<path d="M364.654 46.956C364.619 47.7442 364.352 48.2878 363.853 48.5868C363.371 48.8858 362.492 49.0353 361.218 49.0353C359.943 49.0353 358.875 48.8586 358.014 48.5053C357.17 48.1247 356.748 47.6491 356.748 47.0783C356.748 46.426 357.515 42.2675 359.047 34.6028C360.58 26.911 361.459 22.4807 361.683 21.312C361.769 20.9586 362.458 20.6732 363.75 20.4558C365.059 20.2112 366.454 20.0889 367.935 20.0889C369.433 20.0889 370.26 20.4966 370.415 21.312C373.671 38.3808 375.298 47.0511 375.298 47.3229C375.298 47.5947 375.195 47.8665 374.988 48.1383C374.506 48.7363 373.55 49.0353 372.12 49.0353C369.072 49.0353 367.513 48.4645 367.444 47.3229L367.263 44.6729H364.783L364.654 46.956ZM366.721 36.9267L366.333 29.5882H365.765L365.326 36.9267H366.721Z" fill="#0DA9D3"/>
<path d="M364.654 46.956C364.619 47.7442 364.352 48.2878 363.853 48.5868C363.371 48.8858 362.492 49.0353 361.218 49.0353C359.943 49.0353 358.875 48.8586 358.014 48.5053C357.17 48.1247 356.748 47.6491 356.748 47.0783C356.748 46.426 357.515 42.2675 359.047 34.6028C360.58 26.911 361.459 22.4807 361.683 21.312C361.769 20.9586 362.458 20.6732 363.75 20.4558C365.059 20.2112 366.454 20.0889 367.935 20.0889C369.433 20.0889 370.26 20.4966 370.415 21.312C373.671 38.3808 375.298 47.0511 375.298 47.3229C375.298 47.5947 375.195 47.8665 374.988 48.1383C374.506 48.7363 373.55 49.0353 372.12 49.0353C369.072 49.0353 367.513 48.4645 367.444 47.3229L367.263 44.6729H364.783L364.654 46.956ZM366.721 36.9267L366.333 29.5882H365.765L365.326 36.9267H366.721Z" fill="#0DA9D3"/>
<path d="M345.17 46.956C345.137 47.7442 344.884 48.2878 344.409 48.5868C343.951 48.8858 343.117 49.0353 341.906 49.0353C340.695 49.0353 339.68 48.8586 338.862 48.5053C338.061 48.1247 337.66 47.6491 337.66 47.0783C337.66 46.426 338.388 42.2675 339.844 34.6028C341.3 26.911 342.135 22.4807 342.348 21.312C342.429 20.9586 343.084 20.6732 344.311 20.4558C345.555 20.2112 346.88 20.0889 348.287 20.0889C349.711 20.0889 350.496 20.4966 350.644 21.312C353.736 38.3808 355.282 47.0511 355.282 47.3229C355.282 47.5947 355.184 47.8665 354.988 48.1383C354.53 48.7363 353.622 49.0353 352.263 49.0353C349.367 49.0353 347.886 48.4645 347.821 47.3229L347.649 44.6729H345.293L345.17 46.956ZM347.134 36.9267L346.766 29.5882H346.226L345.808 36.9267H347.134Z" fill="#0DA9D3"/>
<path d="M345.17 46.956C345.137 47.7442 344.884 48.2878 344.409 48.5868C343.951 48.8858 343.117 49.0353 341.906 49.0353C340.695 49.0353 339.68 48.8586 338.862 48.5053C338.061 48.1247 337.66 47.6491 337.66 47.0783C337.66 46.426 338.388 42.2675 339.844 34.6028C341.3 26.911 342.135 22.4807 342.348 21.312C342.429 20.9586 343.084 20.6732 344.311 20.4558C345.555 20.2112 346.88 20.0889 348.287 20.0889C349.711 20.0889 350.496 20.4966 350.644 21.312C353.736 38.3808 355.282 47.0511 355.282 47.3229C355.282 47.5947 355.184 47.8665 354.988 48.1383C354.53 48.7363 353.622 49.0353 352.263 49.0353C349.367 49.0353 347.886 48.4645 347.821 47.3229L347.649 44.6729H345.293L345.17 46.956ZM347.134 36.9267L346.766 29.5882H346.226L345.808 36.9267H347.134Z" fill="#0DA9D3"/>
<path d="M326.326 47.938C326.326 48.2947 325.813 48.5828 324.787 48.8023C323.778 49.0218 322.768 49.1316 321.759 49.1316C320.75 49.1316 320.105 49.0355 319.823 48.8435C319.542 48.6514 319.401 48.3496 319.401 47.938V22.709C319.401 21.9956 319.865 21.3645 320.791 20.8158C321.734 20.267 322.818 19.9926 324.042 19.9926C325.052 19.9926 325.705 20.3219 326.003 20.9804C326.218 21.4468 326.326 21.8721 326.326 22.2562V29.0471H326.524C326.524 28.9099 326.773 27.7712 327.269 25.6311C328.212 21.5977 328.899 19.5811 329.329 19.5811C330.14 19.5811 331.281 19.9789 332.754 20.7746C333.465 21.1587 334.077 21.7212 334.59 22.462C335.103 23.1754 335.36 23.9711 335.36 24.8491C335.36 25.3979 335.021 26.4679 334.342 28.0593C333.68 29.6233 332.671 31.7223 331.314 34.3563C331.629 34.9051 332.026 35.6047 332.506 36.4553C332.985 37.3059 333.622 38.5817 334.417 40.2829C335.227 41.9566 335.633 43.1501 335.633 43.8635C335.633 44.5769 335.244 45.4137 334.466 46.3741C333.689 47.3069 332.861 48.0752 331.984 48.6788C331.108 49.255 330.454 49.5431 330.024 49.5431C329.742 49.5431 329.354 48.8435 328.857 47.4441C328.377 46.0174 327.79 43.8909 327.095 41.0648L326.326 42.5876V47.938Z" fill="#0DA9D3"/>
<path d="M326.326 47.938C326.326 48.2947 325.813 48.5828 324.787 48.8023C323.778 49.0218 322.768 49.1316 321.759 49.1316C320.75 49.1316 320.105 49.0355 319.823 48.8435C319.542 48.6514 319.401 48.3496 319.401 47.938V22.709C319.401 21.9956 319.865 21.3645 320.791 20.8158C321.734 20.267 322.818 19.9926 324.042 19.9926C325.052 19.9926 325.705 20.3219 326.003 20.9804C326.218 21.4468 326.326 21.8721 326.326 22.2562V29.0471H326.524C326.524 28.9099 326.773 27.7712 327.269 25.6311C328.212 21.5977 328.899 19.5811 329.329 19.5811C330.14 19.5811 331.281 19.9789 332.754 20.7746C333.465 21.1587 334.077 21.7212 334.59 22.462C335.103 23.1754 335.36 23.9711 335.36 24.8491C335.36 25.3979 335.021 26.4679 334.342 28.0593C333.68 29.6233 332.671 31.7223 331.314 34.3563C331.629 34.9051 332.026 35.6047 332.506 36.4553C332.985 37.3059 333.622 38.5817 334.417 40.2829C335.227 41.9566 335.633 43.1501 335.633 43.8635C335.633 44.5769 335.244 45.4137 334.466 46.3741C333.689 47.3069 332.861 48.0752 331.984 48.6788C331.108 49.255 330.454 49.5431 330.024 49.5431C329.742 49.5431 329.354 48.8435 328.857 47.4441C328.377 46.0174 327.79 43.8909 327.095 41.0648L326.326 42.5876V47.938Z" fill="#0DA9D3"/>
<path d="M314.419 47.447C313.913 48.0498 313.203 48.5567 312.291 48.9677C311.396 49.3513 310.23 49.5431 308.795 49.5431C307.376 49.5431 306.024 49.3513 304.741 48.9677C303.457 48.5841 302.536 48.1594 301.979 47.6936C301.421 47.2278 301.143 46.7757 301.143 46.3373C301.143 44.8029 301.278 43.2137 301.548 41.5697C301.818 39.8983 302.139 39.0626 302.511 39.0626C302.578 39.0626 303.279 39.4325 304.614 40.1723C305.948 40.9121 306.953 41.282 307.629 41.282C308.305 41.282 308.744 41.1724 308.947 40.9532C309.149 40.7066 309.251 40.3641 309.251 39.9257C309.251 39.4873 309.065 39.1037 308.693 38.7749C308.322 38.4187 307.857 38.1173 307.3 37.8707C306.742 37.5967 306.134 37.2131 305.475 36.7199C304.833 36.2266 304.234 35.6786 303.676 35.0758C303.119 34.473 302.654 33.6236 302.283 32.5276C301.911 31.4042 301.725 30.1301 301.725 28.7053C301.725 22.6225 303.963 19.5811 308.44 19.5811C310.112 19.5811 311.556 19.7592 312.773 20.1154C313.989 20.4442 314.842 20.8278 315.332 21.2662C315.838 21.6772 316.092 22.0882 316.092 22.4992C316.092 23.924 315.881 25.4584 315.458 27.1024C315.053 28.7464 314.656 29.5684 314.267 29.5684C314.2 29.5684 313.98 29.4451 313.609 29.1985C312.494 28.4039 311.565 28.0066 310.822 28.0066C310.095 28.0066 309.597 28.1162 309.327 28.3354C309.073 28.5546 308.947 28.8971 308.947 29.3629C308.947 29.8013 309.132 30.1712 309.504 30.4726C309.876 30.7466 310.332 31.0069 310.872 31.2535C311.43 31.4727 312.029 31.8289 312.671 32.3221C313.33 32.7879 313.938 33.3496 314.495 34.0072C315.053 34.6374 315.517 35.5416 315.889 36.7199C316.261 37.8981 316.446 39.2681 316.446 40.8299C316.446 42.4739 316.185 43.9672 315.661 45.3098C315.34 46.1318 314.926 46.8442 314.419 47.447Z" fill="#0DA9D3"/>
<path d="M314.419 47.447C313.913 48.0498 313.203 48.5567 312.291 48.9677C311.396 49.3513 310.23 49.5431 308.795 49.5431C307.376 49.5431 306.024 49.3513 304.741 48.9677C303.457 48.5841 302.536 48.1594 301.979 47.6936C301.421 47.2278 301.143 46.7757 301.143 46.3373C301.143 44.8029 301.278 43.2137 301.548 41.5697C301.818 39.8983 302.139 39.0626 302.511 39.0626C302.578 39.0626 303.279 39.4325 304.614 40.1723C305.948 40.9121 306.953 41.282 307.629 41.282C308.305 41.282 308.744 41.1724 308.947 40.9532C309.149 40.7066 309.251 40.3641 309.251 39.9257C309.251 39.4873 309.065 39.1037 308.693 38.7749C308.322 38.4187 307.857 38.1173 307.3 37.8707C306.742 37.5967 306.134 37.2131 305.475 36.7199C304.833 36.2266 304.234 35.6786 303.676 35.0758C303.119 34.473 302.654 33.6236 302.283 32.5276C301.911 31.4042 301.725 30.1301 301.725 28.7053C301.725 22.6225 303.963 19.5811 308.44 19.5811C310.112 19.5811 311.556 19.7592 312.773 20.1154C313.989 20.4442 314.842 20.8278 315.332 21.2662C315.838 21.6772 316.092 22.0882 316.092 22.4992C316.092 23.924 315.881 25.4584 315.458 27.1024C315.053 28.7464 314.656 29.5684 314.267 29.5684C314.2 29.5684 313.98 29.4451 313.609 29.1985C312.494 28.4039 311.565 28.0066 310.822 28.0066C310.095 28.0066 309.597 28.1162 309.327 28.3354C309.073 28.5546 308.947 28.8971 308.947 29.3629C308.947 29.8013 309.132 30.1712 309.504 30.4726C309.876 30.7466 310.332 31.0069 310.872 31.2535C311.43 31.4727 312.029 31.8289 312.671 32.3221C313.33 32.7879 313.938 33.3496 314.495 34.0072C315.053 34.6374 315.517 35.5416 315.889 36.7199C316.261 37.8981 316.446 39.2681 316.446 40.8299C316.446 42.4739 316.185 43.9672 315.661 45.3098C315.34 46.1318 314.926 46.8442 314.419 47.447Z" fill="#0DA9D3"/>
<path d="M296.668 37.6971C296.668 41.6298 295.469 44.5793 294.039 46.5457C292.626 48.4847 289.813 49.4542 287.108 49.4542C284.421 49.4542 282.353 48.4847 280.906 46.5457C279.458 44.5793 278.735 41.6298 278.735 37.6971V22.6628C278.735 21.98 279.217 21.3655 280.182 20.8193C281.164 20.2731 282.301 20 283.594 20C284.627 20 285.299 20.3141 285.609 20.9422C285.833 21.4338 285.945 21.8571 285.945 22.2121V34.4199C285.945 37.5059 286.017 39.5542 286.155 40.5647C286.31 41.5479 287.528 41.8368 288.01 41.8368C288.492 41.8368 289.744 41.5206 289.865 40.5647C290.003 39.5815 290.175 37.5879 290.175 34.4199V22.7037C290.175 22.021 289.94 21.3655 290.904 20.8193C291.887 20.2731 293.015 20 294.29 20C295.375 20 296.065 20.3141 296.358 20.9422C296.564 21.4338 296.668 21.8571 296.668 22.2121V37.6971Z" fill="#0DA9D3"/>
<path d="M296.668 37.6971C296.668 41.6298 295.469 44.5793 294.039 46.5457C292.626 48.4847 289.813 49.4542 287.108 49.4542C284.421 49.4542 282.353 48.4847 280.906 46.5457C279.458 44.5793 278.735 41.6298 278.735 37.6971V22.6628C278.735 21.98 279.217 21.3655 280.182 20.8193C281.164 20.2731 282.301 20 283.594 20C284.627 20 285.299 20.3141 285.609 20.9422C285.833 21.4338 285.945 21.8571 285.945 22.2121V34.4199C285.945 37.5059 286.017 39.5542 286.155 40.5647C286.31 41.5479 287.528 41.8368 288.01 41.8368C288.492 41.8368 289.744 41.5206 289.865 40.5647C290.003 39.5815 290.175 37.5879 290.175 34.4199V22.7037C290.175 22.021 289.94 21.3655 290.904 20.8193C291.887 20.2731 293.015 20 294.29 20C295.375 20 296.065 20.3141 296.358 20.9422C296.564 21.4338 296.668 21.8571 296.668 22.2121V37.6971Z" fill="#0DA9D3"/>
<path d="M252.798 22.6281C252.798 22.6281 252.334 35.3239 252.798 36.3396C253.262 37.3552 258.363 36.8474 258.595 36.3396C258.827 35.8317 258.595 32.023 258.595 32.023C258.524 31.9438 258.88 31.6164 259.059 31.7691C262.116 33.7643 263.99 32.6756 265.525 31.7846L265.551 31.7691C265.76 31.6142 266.133 31.9249 266.015 32.023C266.015 32.023 266.098 46.7501 266.636 47.5119C267.174 48.2736 272.044 47.258 272.971 47.004C273.899 46.7501 272.739 21.8663 272.739 21.8663C272.781 21.6983 268.152 20.8458 267.87 21.3586C263.362 27.7992 259.038 25.1616 256.74 21.3585C256.505 20.9397 252.71 22.3963 252.798 22.6281Z" fill="#0DA9D3"/>
<path d="M240.143 42.3763C244.011 47.1902 251.991 47.3734 254.537 41.5647" stroke="#FEAB25" stroke-width="6" stroke-linecap="round"/>
<path d="M228.475 48.4771C228.475 48.7757 227.934 49.02 226.852 49.2099C225.771 49.3728 224.681 49.4542 223.581 49.4542C222.5 49.4542 221.808 49.3864 221.507 49.2507C221.205 49.0878 221.055 48.83 221.055 48.4771V23.1541C221.055 22.557 221.569 21.9735 222.597 21.4035C223.626 20.8064 224.778 20.5078 226.055 20.5078C227.189 20.5078 227.934 20.8742 228.289 21.607C228.413 21.8785 228.475 22.1499 228.475 22.4213V48.4771Z" fill="#73C134"/>
<path d="M216.488 47.866C215.981 48.4688 215.272 48.9757 214.359 49.3867C213.464 49.7703 212.299 49.9621 210.863 49.9621C209.444 49.9621 208.093 49.7703 206.809 49.3867C205.525 49.0031 204.605 48.5784 204.047 48.1126C203.49 47.6468 203.211 47.1946 203.211 46.7562C203.211 45.2218 203.346 43.6326 203.616 41.9886C203.887 40.3172 204.208 39.4815 204.579 39.4815C204.647 39.4815 205.348 39.8514 206.682 40.5912C208.017 41.331 209.022 41.7009 209.697 41.7009C210.373 41.7009 210.812 41.5913 211.015 41.3721C211.218 41.1255 211.319 40.783 211.319 40.3446C211.319 39.9062 211.133 39.5226 210.762 39.1938C210.39 38.8376 209.925 38.5362 209.368 38.2896C208.811 38.0156 208.202 37.632 207.544 37.1388C206.902 36.6456 206.302 36.0976 205.745 35.4948C205.187 34.892 204.723 34.0426 204.351 32.9466C203.98 31.8232 203.794 30.5491 203.794 29.1243C203.794 23.0414 206.032 20 210.508 20C212.18 20 213.625 20.1781 214.841 20.5343C216.057 20.8631 216.91 21.2467 217.4 21.6851C217.907 22.0961 218.16 22.5071 218.16 22.9181C218.16 24.3429 217.949 25.8773 217.527 27.5213C217.121 29.1653 216.724 29.9874 216.336 29.9874C216.268 29.9874 216.049 29.8641 215.677 29.6175C214.562 28.8228 213.633 28.4255 212.89 28.4255C212.164 28.4255 211.665 28.5351 211.395 28.7543C211.142 28.9735 211.015 29.3161 211.015 29.7819C211.015 30.2203 211.201 30.5902 211.572 30.8916C211.944 31.1656 212.4 31.4259 212.941 31.6725C213.498 31.8917 214.098 32.2479 214.74 32.7411C215.398 33.2069 216.006 33.7686 216.564 34.4262C217.121 35.0564 217.586 35.9606 217.957 37.1388C218.329 38.317 218.515 39.687 218.515 41.2488C218.515 42.8928 218.253 44.3861 217.729 45.7287C217.408 46.5507 216.995 47.2632 216.488 47.866Z" fill="url(#paint0_linear_282_1048)"/>
<path d="M216.488 47.866C215.981 48.4688 215.272 48.9757 214.359 49.3867C213.464 49.7703 212.299 49.9621 210.863 49.9621C209.444 49.9621 208.093 49.7703 206.809 49.3867C205.525 49.0031 204.605 48.5784 204.047 48.1126C203.49 47.6468 203.211 47.1946 203.211 46.7562C203.211 45.2218 203.346 43.6326 203.616 41.9886C203.887 40.3172 204.208 39.4815 204.579 39.4815C204.647 39.4815 205.348 39.8514 206.682 40.5912C208.017 41.331 209.022 41.7009 209.697 41.7009C210.373 41.7009 210.812 41.5913 211.015 41.3721C211.218 41.1255 211.319 40.783 211.319 40.3446C211.319 39.9062 211.133 39.5226 210.762 39.1938C210.39 38.8376 209.925 38.5362 209.368 38.2896C208.811 38.0156 208.202 37.632 207.544 37.1388C206.902 36.6456 206.302 36.0976 205.745 35.4948C205.187 34.892 204.723 34.0426 204.351 32.9466C203.98 31.8232 203.794 30.5491 203.794 29.1243C203.794 23.0414 206.032 20 210.508 20C212.18 20 213.625 20.1781 214.841 20.5343C216.057 20.8631 216.91 21.2467 217.4 21.6851C217.907 22.0961 218.16 22.5071 218.16 22.9181C218.16 24.3429 217.949 25.8773 217.527 27.5213C217.121 29.1653 216.724 29.9874 216.336 29.9874C216.268 29.9874 216.049 29.8641 215.677 29.6175C214.562 28.8228 213.633 28.4255 212.89 28.4255C212.164 28.4255 211.665 28.5351 211.395 28.7543C211.142 28.9735 211.015 29.3161 211.015 29.7819C211.015 30.2203 211.201 30.5902 211.572 30.8916C211.944 31.1656 212.4 31.4259 212.941 31.6725C213.498 31.8917 214.098 32.2479 214.74 32.7411C215.398 33.2069 216.006 33.7686 216.564 34.4262C217.121 35.0564 217.586 35.9606 217.957 37.1388C218.329 38.317 218.515 39.687 218.515 41.2488C218.515 42.8928 218.253 44.3861 217.729 45.7287C217.408 46.5507 216.995 47.2632 216.488 47.866Z" fill="#73C134"/>
<path d="M194.399 48.4771C194.399 48.7757 193.892 49.02 192.878 49.2099C191.864 49.3728 190.842 49.4542 189.811 49.4542C188.797 49.4542 188.149 49.3864 187.866 49.2507C187.584 49.0878 187.442 48.83 187.442 48.4771V23.1541C187.442 22.557 187.924 21.9735 188.889 21.4035C189.853 20.8064 190.933 20.5078 192.13 20.5078C193.194 20.5078 193.892 20.8742 194.224 21.607C194.341 21.8785 194.399 22.1499 194.399 22.4213V48.4771Z" fill="url(#paint1_linear_282_1048)"/>
<path d="M194.399 48.4771C194.399 48.7757 193.892 49.02 192.878 49.2099C191.864 49.3728 190.842 49.4542 189.811 49.4542C188.797 49.4542 188.149 49.3864 187.866 49.2507C187.584 49.0878 187.442 48.83 187.442 48.4771V23.1541C187.442 22.557 187.924 21.9735 188.889 21.4035C189.853 20.8064 190.933 20.5078 192.13 20.5078C193.194 20.5078 193.892 20.8742 194.224 21.607C194.341 21.8785 194.399 22.1499 194.399 22.4213V48.4771Z" fill="#0DA9D3"/>
<path d="M180.667 48.4757C180.667 48.7747 180.134 49.0193 179.067 49.2096C178.018 49.3727 176.96 49.4542 175.893 49.4542C174.844 49.4542 174.173 49.3863 173.88 49.2504C173.605 49.0873 173.467 48.8291 173.467 48.4757V30.9448H169.88C169.691 30.9448 169.528 30.5643 169.39 29.8033C169.252 29.0422 169.184 27.9143 169.184 26.4194C169.184 24.8973 169.287 23.5384 169.493 22.3424C169.7 21.1194 169.975 20.5078 170.319 20.5078H184.28C184.538 20.5078 184.71 20.8883 184.796 21.6494C184.9 22.4104 184.951 23.5112 184.951 24.9517C184.951 26.3922 184.857 27.7512 184.667 29.0287C184.478 30.3061 184.22 30.9448 183.893 30.9448H180.667V48.4757Z" fill="url(#paint2_linear_282_1048)"/>
<path d="M180.667 48.4757C180.667 48.7747 180.134 49.0193 179.067 49.2096C178.018 49.3727 176.96 49.4542 175.893 49.4542C174.844 49.4542 174.173 49.3863 173.88 49.2504C173.605 49.0873 173.467 48.8291 173.467 48.4757V30.9448H169.88C169.691 30.9448 169.528 30.5643 169.39 29.8033C169.252 29.0422 169.184 27.9143 169.184 26.4194C169.184 24.8973 169.287 23.5384 169.493 22.3424C169.7 21.1194 169.975 20.5078 170.319 20.5078H184.28C184.538 20.5078 184.71 20.8883 184.796 21.6494C184.9 22.4104 184.951 23.5112 184.951 24.9517C184.951 26.3922 184.857 27.7512 184.667 29.0287C184.478 30.3061 184.22 30.9448 183.893 30.9448H180.667V48.4757Z" fill="#0DA9D3"/>
<path d="M158.492 49.9621C157.11 49.9621 155.921 49.7566 154.922 49.3456C153.94 48.9072 153.033 48.14 152.201 47.044C150.521 44.8793 149.68 40.7282 149.68 34.5906C149.68 32.015 149.905 29.7682 150.354 27.8501C150.82 25.9321 151.461 24.4114 152.276 23.288C153.874 21.096 155.945 20 158.492 20C159.806 20 160.946 20.1918 161.911 20.5754C162.893 20.959 163.817 21.6577 164.682 22.6715C166.429 24.7539 167.303 28.7269 167.303 34.5906C167.303 39.8514 166.512 43.7285 164.932 46.2219C163.351 48.7154 161.204 49.9621 158.492 49.9621ZM157.668 42.9339C157.867 43.3175 158.142 43.5093 158.492 43.5093C158.841 43.5093 159.116 43.3175 159.315 42.9339C159.515 42.5229 159.681 41.6735 159.814 40.3857C159.948 39.0705 160.014 37.2484 160.014 34.9194C160.014 32.5904 159.948 30.7957 159.814 29.5353C159.681 28.2748 159.515 27.4528 159.315 27.0692C159.116 26.6856 158.841 26.4938 158.492 26.4938C158.142 26.4938 157.867 26.6856 157.668 27.0692C157.468 27.4528 157.302 28.2748 157.169 29.5353C157.035 30.7957 156.969 32.5904 156.969 34.9194C156.969 37.2484 157.035 39.0705 157.169 40.3857C157.302 41.6735 157.468 42.5229 157.668 42.9339Z" fill="#0DA9D3"/>
<path d="M116.843 48.2719C116.843 48.6252 116.332 48.9106 115.312 49.1281C114.309 49.3455 113.289 49.4542 112.252 49.4542C111.231 49.4542 110.571 49.3591 110.27 49.1688C109.985 48.9786 109.843 48.6796 109.843 48.2719V23.1986C109.843 22.5191 110.328 21.9076 111.298 21.364C112.268 20.7932 113.322 20.5078 114.459 20.5078C116.048 20.5078 116.843 21.1194 116.843 22.3424V31.3118H119.075V23.1986C119.075 22.5191 119.56 21.9076 120.53 21.364C121.517 20.7932 122.579 20.5078 123.716 20.5078C125.289 20.5078 126.075 21.1194 126.075 22.3424V48.2719C126.075 48.6252 125.565 48.9106 124.544 49.1281C123.524 49.3455 122.504 49.4542 121.484 49.4542C120.464 49.4542 119.803 49.3591 119.502 49.1688C119.218 48.9786 119.075 48.6796 119.075 48.2719V38.9357H116.843V48.2719Z" fill="#0DA9D3"/>
<path d="M136.761 47.7641C136.761 48.1174 136.251 48.4028 135.231 48.6202C134.227 48.8377 133.207 48.9464 132.17 48.9464C131.15 48.9464 130.489 48.8513 130.188 48.661C129.904 48.4708 129.762 48.1718 129.762 47.7641V22.6908C129.762 22.0113 130.247 21.3998 131.217 20.8562C132.187 20.2854 133.24 20 134.378 20C135.967 20 136.761 20.6115 136.761 21.8346V30.8039H138.994V22.6908C138.994 22.0113 139.479 21.3998 140.449 20.8562C141.436 20.2854 142.498 20 143.635 20C145.207 20 145.993 20.6115 145.993 21.8346V47.7641C145.993 48.1174 145.483 48.4028 144.463 48.6202C143.443 48.8377 142.422 48.9464 141.402 48.9464C140.382 48.9464 139.721 48.8513 139.42 48.661C139.136 48.4708 138.994 48.1718 138.994 47.7641V38.4279H136.761V47.7641Z" fill="url(#paint3_linear_282_1048)"/>
<path d="M136.761 47.7641C136.761 48.1174 136.251 48.4028 135.231 48.6202C134.227 48.8377 133.207 48.9464 132.17 48.9464C131.15 48.9464 130.489 48.8513 130.188 48.661C129.904 48.4708 129.762 48.1718 129.762 47.7641V22.6908C129.762 22.0113 130.247 21.3998 131.217 20.8562C132.187 20.2854 133.24 20 134.378 20C135.967 20 136.761 20.6115 136.761 21.8346V30.8039H138.994V22.6908C138.994 22.0113 139.479 21.3998 140.449 20.8562C141.436 20.2854 142.498 20 143.635 20C145.207 20 145.993 20.6115 145.993 21.8346V47.7641C145.993 48.1174 145.483 48.4028 144.463 48.6202C143.443 48.8377 142.422 48.9464 141.402 48.9464C140.382 48.9464 139.721 48.8513 139.42 48.661C139.136 48.4708 138.994 48.1718 138.994 47.7641V38.4279H136.761V47.7641Z" fill="#0DA9D3"/>
<path d="M104.724 49.3045C104.06 49.5511 103.379 49.7155 102.682 49.7977C102.001 49.9073 101.329 49.9621 100.665 49.9621C100.018 49.9621 99.5114 49.9347 99.1462 49.8799C98.7976 49.8251 98.3328 49.6881 97.7518 49.4689C97.1708 49.2497 96.6396 48.9483 96.1582 48.5647C95.6768 48.1811 95.1622 47.6194 94.6145 46.8796C94.0833 46.1397 93.6351 45.2629 93.2699 44.2491C92.4233 41.8927 92 38.8513 92 35.1249C92 32.6315 92.2324 30.4258 92.6972 28.5077C93.1786 26.5897 93.7513 25.1101 94.4153 24.0689C95.0958 23.0277 95.8677 22.192 96.7309 21.5618C98.1253 20.5206 99.528 20 100.939 20C102.964 20 104.417 20.274 105.296 20.822C105.695 21.0686 106.052 21.4522 106.367 21.9728C106.682 22.4934 106.84 23.2469 106.84 24.2333C106.84 25.2197 106.691 26.4664 106.392 27.9734C106.11 29.4805 105.695 30.234 105.147 30.234C104.981 30.234 104.367 30.0148 103.304 29.5764C102.242 29.138 101.52 28.9187 101.138 28.9187C100.557 28.9187 100.059 29.4531 99.6442 30.5217C99.2458 31.5903 99.0466 33.111 99.0466 35.0838C99.0466 37.0566 99.2209 38.591 99.5695 39.687C99.9347 40.783 100.408 41.331 100.989 41.331C101.404 41.331 102.151 41.057 103.23 40.509C104.325 39.9336 104.964 39.6459 105.147 39.6459C105.662 39.6459 106.06 40.4268 106.342 41.9886C106.641 43.5504 106.79 44.8108 106.79 45.7698C106.79 46.7288 106.608 47.4961 106.243 48.0715C105.894 48.6195 105.388 49.0305 104.724 49.3045Z" fill="#0DA9D3"/>
<path d="M240.692 32.0229C240.692 33.6135 239.524 34.8238 238.177 34.8238C236.831 34.8238 235.663 33.6135 235.663 32.0229C235.663 30.4323 236.831 29.222 238.177 29.222C239.524 29.222 240.692 30.4323 240.692 32.0229Z" fill="#FDAC2A" stroke="#FEAB25"/>
<mask id="mask0_282_1048" style="mask-type:alpha" maskUnits="userSpaceOnUse" x="15" y="4" width="58" height="56">
<path fill-rule="evenodd" clip-rule="evenodd" d="M44.2728 57.7888C59.1361 57.7888 71.1851 48.1871 71.1851 33.3421C71.1851 18.497 59.1361 6.46277 44.2728 6.46277C29.4096 6.46277 17.3606 18.497 17.3606 33.3421C17.3606 48.1871 29.4096 57.7888 44.2728 57.7888ZM44.7599 59.0051C60.5647 59.0051 72.8899 49.1275 72.8899 33.3421C72.8899 17.5566 60.0776 4.76001 44.2728 4.76001C28.4681 4.76001 15.6558 17.5566 15.6558 33.3421C15.6558 49.1275 28.9552 59.0051 44.7599 59.0051Z" fill="black"/>
</mask>
<g mask="url(#mask0_282_1048)">
<rect x="16.1582" y="4.70801" width="57.926" height="40.124" fill="url(#paint4_linear_282_1048)" stroke="url(#paint5_linear_282_1048)"/>
</g>
<path d="M34.2451 22.4748C34.0503 22.1829 34.2451 22.0288 34.3669 21.9883C34.854 21.5018 35.9012 20.4314 36.1935 20.0422C36.5588 19.5557 39.2379 18.0962 40.6992 18.826C42.1605 19.5557 43.1347 20.1639 43.6218 21.9883C44.0114 23.4478 43.2158 25.1911 42.7693 25.8803C42.4446 26.2046 41.99 27.1938 42.7693 28.556C43.5487 29.9183 43.8247 31.5562 43.8653 32.2048L43.9871 38.5294C44.0683 38.7321 43.8653 39.2348 42.404 39.624C40.5774 40.1105 39.725 39.7456 38.9943 39.7456C38.2637 39.7456 37.533 39.5024 37.1677 39.3807C36.8754 39.2834 36.8024 39.0969 36.8024 39.0159V37.9212C36.8024 37.7266 36.8835 37.678 36.9241 37.678C37.3301 37.6374 38.2393 37.5077 38.629 37.3131C39.1161 37.0699 41.0645 36.2185 41.7951 34.759C42.5258 33.2995 42.7693 32.5697 42.7693 32.2048C42.7693 31.8399 42.5258 31.5967 42.5258 32.2048C42.5258 32.6913 41.7951 34.0292 41.4298 34.6373C40.2121 36.4617 39.2379 36.4617 38.5072 36.8266C37.7766 37.1915 36.3153 37.3131 35.3411 37.5564C34.3669 37.7996 34.3669 37.5564 34.0015 37.4347C33.6362 37.3131 33.1491 37.678 32.9056 37.9212C32.7107 38.1158 32.4997 38.0023 32.4185 37.9212L31.566 37.0699L29.2523 34.5157C28.887 34.0697 28.0833 33.1049 27.791 32.8129C27.4988 32.521 27.5881 32.2859 27.6693 32.2048C28.0589 31.621 27.994 29.2858 27.9128 28.1912H28.3999C28.5947 28.1912 28.6435 28.5155 28.6435 28.6777V30.7453C28.6435 30.8151 28.6481 30.8677 28.6557 30.9069L29.0088 28.556C29.0494 28.0912 29.3741 27.4614 29.7394 28.1912C29.8612 28.4344 29.653 28.972 29.4959 29.2858C29.4249 29.4275 29.1473 30.1574 28.9279 30.688C29.3836 29.8653 30.1618 28.6062 30.5919 28.4344C31.079 28.2398 31.0384 28.6777 30.9572 28.9209C30.3483 29.5696 29.0819 30.9399 28.887 31.2318C28.6922 31.5237 28.887 31.4345 29.0088 31.3534C30.0236 30.5021 32.1749 28.7993 32.662 28.7993C33.1491 28.7993 32.865 29.1236 32.662 29.2858C31.3631 30.2183 28.6922 32.1318 28.3999 32.3264C28.0346 32.5697 28.1563 32.6913 28.5217 32.6913C28.8139 32.6913 30.2671 31.6372 30.9572 31.1102C31.7284 30.5831 33.2952 29.5047 33.3927 29.4074C33.4901 29.3101 33.5956 29.448 33.6362 29.5291C34.2857 30.4615 35.7307 32.521 36.3153 33.2995C36.8998 34.0779 37.2083 33.7049 37.2895 33.4211C37.7766 30.9886 39.1161 29.2858 39.3596 28.6777C39.5545 28.1912 39.1973 28.2317 38.9943 28.3128C38.8319 28.3533 38.4098 28.4101 38.0201 28.3128C37.533 28.1912 36.8024 27.4614 36.6806 27.2182C36.5832 27.0236 36.4776 26.9749 36.437 26.9749C35.7064 26.8533 35.8282 26.61 35.9499 26.4884C36.0717 26.3668 36.0717 26.0019 36.0717 25.637C36.0717 25.2722 34.4886 22.8396 34.2451 22.4748Z" fill="#00AFCE"/>
<path d="M43.6218 39.7456C42.2579 40.8159 38.5884 40.2727 36.9241 39.8672C36.6282 39.7985 37.1677 41.0835 37.1677 41.9349C37.1677 42.616 37.736 45.462 38.0201 46.7999C38.2231 47.6918 38.6533 49.6216 38.7508 50.2054C38.8725 50.9352 38.8075 50.8396 38.8725 51.0568C38.935 51.2654 39.1161 51.6649 39.1161 51.9082C39.1161 52.0704 39.0917 52.419 38.9943 52.5163C38.8725 52.6379 39.6032 52.7596 39.8467 52.8812C40.0416 52.9785 39.9279 52.6785 39.8467 52.5163C39.7655 52.3947 39.725 52.3947 39.725 52.1761C39.725 52.0384 39.6837 51.8757 39.6431 51.7946C39.6026 51.7541 39.6032 51.4947 39.6032 51.3001C39.6032 51.1055 39.522 50.8946 39.4814 50.8136L38.7508 47.0432C38.4666 45.7864 37.8983 43.0052 37.8983 41.9349C37.8983 40.597 38.7508 43.516 38.9943 45.5836C39.1891 47.2378 39.725 49.4351 39.9685 50.3271L40.0903 51.4217C40.0903 51.5433 40.1207 51.6972 40.1207 51.7946C40.1207 51.8687 40.1207 51.9631 40.1207 52.0334C40.1207 52.0334 40.1058 52.2952 40.1207 52.3915C40.1486 52.573 40.24 53.4659 40.24 52.9884C40.24 53.2316 40.3582 52.9055 40.4556 53.0028C40.5774 53.1244 42.2822 53.4893 42.8911 53.4893C43.5 53.4893 43.2564 53.3677 43.2564 53.1244C43.2564 52.9298 43.0941 52.5569 43.0129 52.3947C42.9857 52.2721 42.9857 52.1308 42.9857 52.0334C42.9857 51.914 42.9857 51.9545 42.9857 51.914C42.9857 51.8174 42.9857 51.8073 42.9857 51.6752C42.9857 51.5559 42.9857 51.6752 42.9857 51.5559C43.0263 50.4207 43.1051 50.004 43.1051 49.4071C43.1051 48.547 43.6453 46.7084 43.1051 46.3033C42.6276 45.9451 42.747 44.9901 43.2564 42.722C43.7659 40.4538 43.7841 39.624 43.6218 39.7456Z" fill="#00AFCE"/>
<path d="M29.4959 32.813C29.2036 32.7157 29.2117 32.9346 29.2523 33.0562C29.4147 33.4616 29.8856 34.3454 30.4701 34.6373C31.0546 34.9292 30.9572 34.5968 30.8354 34.3941C30.5107 33.9076 29.7881 32.9103 29.4959 32.813Z" fill="#FFF9F0"/>
<path d="M31.4443 35.1238C30.8598 35.0265 30.9572 35.3266 31.0789 35.4887C31.1195 35.5293 31.2494 35.7076 31.4443 36.0969C31.6391 36.4861 32.4997 36.8266 32.9056 36.9482H33.8798V35.2455C33.758 35.0022 33.3927 34.4427 32.9056 34.1508C32.4185 33.8589 32.3391 34.1896 32.4608 34.4329L32.7838 35.0022C32.8244 35.0428 32.8569 35.1482 32.662 35.2455C32.4185 35.3671 32.1749 35.2455 31.4443 35.1238Z" fill="#FFF9F0"/>
<path d="M34.7322 37.0699C35.1219 37.2645 35.0163 36.9888 34.9757 36.8266C34.9305 36.6458 34.854 36.0968 34.854 35.6103C34.854 35.2092 35.0975 35.2049 35.2193 35.2455C36.0311 35.3266 37.8496 35.0995 38.629 33.5427C39.6032 31.5967 40.0903 31.1102 40.4556 30.6237C40.7479 30.2345 41.308 30.2183 41.5516 30.2588C41.7139 30.3399 42.0143 30.4534 41.9169 30.2588C41.8195 30.0642 41.5516 30.0156 41.4298 30.0156C41.1863 30.0156 40.6017 30.0885 40.2121 30.3804C39.725 30.7453 38.8725 32.2048 38.2637 33.4211C37.6548 34.6373 35.7064 34.8806 35.0975 34.8806C34.6104 34.8806 34.4886 35.1238 34.4886 35.2455C34.4075 35.7725 34.3425 36.8753 34.7322 37.0699Z" fill="#FFF9F0"/>
<path d="M39.4814 40.597C39.384 40.6943 39.4408 40.9619 39.4814 41.0835C39.6762 42.1538 40.4556 42.5025 40.8209 42.543C41.2674 42.543 41.9656 42.4944 41.1863 42.2998C40.2121 42.0565 39.725 40.8403 39.725 40.7186C39.725 40.597 39.6032 40.4754 39.4814 40.597Z" fill="#FFF9F0"/>
<path d="M36.5588 25.8803C36.5994 25.6776 36.6075 25.1992 36.3153 24.9073C36.023 24.6154 35.747 24.0559 35.7064 23.8126C35.7064 23.8126 35.5846 23.3261 35.9499 23.3261C36.3153 23.3261 37.0459 23.0829 37.2895 22.8396C37.6548 22.4748 37.7766 23.0829 37.7766 23.0829C37.8983 23.3261 37.7522 23.3991 38.1419 23.691C38.5316 23.9829 39.0755 24.6235 39.3596 24.9073C39.522 24.9884 39.8224 25.0046 39.725 24.4208C39.6275 23.837 40.2526 23.7721 40.5774 23.8126C41.5516 24.1775 41.0645 25.2722 40.6992 25.5154C40.4069 25.71 40.5774 25.8397 40.6992 25.8803L41.4298 26.2452C41.8195 26.3425 41.8357 27.0965 41.7951 27.4614V28.0696C41.7951 28.1912 41.308 28.3128 41.1863 28.3128C41.0888 28.3128 40.9021 28.3939 40.8209 28.4344C40.139 28.9209 39.9685 28.8804 39.9685 28.7993C39.8467 27.8263 39.9685 27.9479 40.2121 27.583C40.4069 27.2911 40.1309 27.3803 39.9685 27.4614L39.725 27.583C39.522 27.6641 38.97 27.8263 38.3854 27.8263C37.8009 27.8263 37.3301 27.2587 37.1677 26.9749C37.0865 26.7722 36.8511 26.3911 36.5588 26.4884C36.2666 26.5857 36.437 26.1235 36.5588 25.8803Z" fill="#FFF9F0"/>
<path d="M46.5478 33.1263C46.4504 38.2832 44.1123 45.0456 44.1123 45.4105C44.0731 45.6425 44.3756 45.7951 44.5994 46.0186C44.9648 46.3835 45.4519 46.5051 45.6954 46.3835C45.8981 46.2823 45.9013 45.973 45.939 45.7754C46.3286 43.7321 47.0755 41.1942 47.4003 40.1806L46.5478 45.0456C46.4261 45.7754 46.0607 47.016 47.0349 47.1133C48.0091 47.2106 48.3745 46.6268 48.3745 46.2619C48.3745 44.6469 48.618 41.6401 48.9833 40.4239C48.9022 42.4104 48.7398 46.4078 48.7398 46.5051C48.7398 46.7484 48.7398 46.7484 48.8616 46.87C49.4704 47.4781 50.2011 47.2349 50.5664 47.1133C50.8587 47.016 50.8222 46.6761 50.81 46.5051C50.5664 43.0996 50.607 41.1131 50.6882 40.5455C50.8911 42.2888 51.3214 45.9457 51.4188 46.6268C51.5163 47.3079 52.596 47.1944 53.1237 46.9916C53.489 46.8513 53.489 46.3835 53.1237 45.6538C52.8447 45.0965 52.393 41.9239 52.2713 40.3022C52.7584 42.1266 53.7326 45.824 53.7326 46.0186C53.7326 46.1403 53.8137 46.343 53.8543 46.3835C54.2197 46.6268 55.4374 45.897 55.4374 45.5321C55.4374 45.0936 53.6108 39.6941 53.6108 38.8427C53.6108 38.1616 53.3672 38.0724 53.2455 38.113C52.7989 38.1941 51.5163 38.0886 49.9575 37.0183C48.0091 35.6805 47.522 33.1263 47.6438 32.6398C47.7412 32.2506 47.8468 32.3966 47.8874 32.5182C47.9685 33.1263 48.3988 34.6345 49.4704 35.8021C50.81 37.2616 51.5406 37.2616 53.489 37.6265C55.4374 37.9913 55.1939 37.8697 55.3156 37.7481C55.413 37.6508 55.5998 37.6265 55.681 37.6265C55.9245 37.667 56.6064 37.6751 57.3858 37.3832C58.36 37.0183 59.3342 36.167 58.9689 35.4372C58.6766 34.8534 57.9541 34.9507 57.6293 35.0723C57.7105 34.9102 57.7755 34.5128 57.3858 34.2209C56.9961 33.929 56.0869 34.5047 55.681 34.8291C53.6351 34.6345 53.1237 34.2615 53.1237 34.0993C52.7584 31.9101 51.9059 29.8424 51.7842 29.3559C51.6867 28.9667 51.6624 28.8694 51.5406 28.8694C51.1753 28.8694 50.3229 28.3829 49.3487 28.1396C48.5693 27.945 48.3745 27.8964 48.2527 28.018C47.2785 28.991 46.7102 31.829 46.5478 33.1263Z" fill="#73C134"/>
<path d="M48.1309 47.3565C47.9361 47.5511 47.6438 47.5187 47.522 47.4781C47.4839 47.4676 47.5061 47.5548 47.522 47.5998V53.0729L47.4003 53.4378L48.2527 53.0729V48.3295C48.2933 47.9241 48.3257 47.1619 48.1309 47.3565Z" fill="#73C134"/>
<path d="M48.7398 47.3565C48.6424 47.3565 48.618 47.4376 48.618 47.4781V53.3162L51.1753 52.5864V49.0593C51.1753 48.4511 51.297 48.0862 51.4188 47.843C51.5406 47.5997 51.4188 47.5998 51.297 47.3565C51.1996 47.1619 51.0129 47.2754 50.9317 47.3565C50.7369 47.5511 50.2823 47.5998 50.0793 47.5998C49.1051 47.5998 48.8616 47.3565 48.7398 47.3565Z" fill="#73C134"/>
<path d="M51.3358 27.9905C51.7011 27.9905 51.7011 27.6256 51.7011 27.6256C51.7011 27.6256 51.8229 27.1391 51.8228 26.8571C51.8228 26.575 53.0406 26.0057 53.6494 25.7624C53.9417 25.3732 53.9336 24.7084 53.893 24.4246C54.2583 23.9381 53.893 23.8165 53.893 23.5732C53.893 23.33 54.6236 22.9651 54.1365 22.7218C53.6065 22.4571 53.2029 22.1137 53.1623 21.8704C53.1623 20.0461 52.6752 19.3163 52.1881 19.0731C52.4317 20.0461 52.1476 20.8163 52.0664 21.1407C51.701 21.7488 51.2451 22.3392 50.3615 22.8434C49.5591 23.3014 49.5091 23.6152 49.5091 23.8164C49.5091 24.4246 50.118 24.5462 50.3615 24.6678C50.6051 24.7894 50.6051 25.0327 50.3615 25.0327C50.0535 25.0327 49.6309 24.9111 49.5091 24.7894C48.5349 23.8164 49.1423 22.9251 49.6309 22.7218C51.0922 22.1137 51.9446 21.1407 51.9446 19.8028C51.9446 19.7216 51.9446 18.9514 51.701 18.8298C49.6546 17.8079 47.926 18.7082 46.7083 19.8028C45.4771 20.9094 45.4905 22.965 45.8559 23.4515C46.1481 23.8407 45.8965 23.938 45.7341 23.938C45.247 24.0191 44.0292 24.3029 43.9075 25.5192C43.7858 26.7354 44.0293 27.0175 44.5164 28.2338C45.0035 29.45 44.354 30.3014 43.9075 30.6663C44.0292 30.6663 44.2729 30.7879 44.7599 30.6663C45.6124 30.3014 46.0994 29.7617 46.343 28.9247C46.5865 28.0877 46.343 26.4922 46.0994 26.0057C45.8559 25.5192 46.3429 25.2372 46.7083 25.3976C47.0737 25.558 48.0479 27.0175 48.1697 27.1391C48.2914 27.2608 48.7785 27.2608 49.1438 27.3824C49.5092 27.504 50.9705 27.9905 51.3358 27.9905Z" fill="#73C134"/>
<path d="M55.4341 37.0737V35.6142C55.4341 35.2493 56.2865 35.006 56.7736 34.7628C57.1633 34.5682 57.1795 34.7628 57.1389 34.8844L56.6518 35.3709C56.5706 35.4926 56.6275 35.6872 57.5043 35.4926C58.381 35.298 58.4379 35.6547 58.3567 35.8574C58.1618 36.9277 56.3271 37.1142 55.4341 37.0737Z" fill="#FFF9F0"/>
<path d="M50.5628 32.3294C51.0499 30.1402 49.4533 29.7432 48.6177 29.7432C48.4983 29.7432 48.4095 29.458 48.6177 29.4328C50.647 29.1864 51.2935 31.1132 50.9282 32.3295C51.7806 34.2755 53.2429 35.1797 54.1087 35.221C54.7032 35.2493 54.825 35.3892 54.825 35.5904L54.825 36.9521C54.825 37.5602 54.5742 37.4409 54.5814 37.0737C54.6476 35.5904 54.6151 35.6292 54.3379 35.6142C52.0698 35.491 50.7718 33.1953 50.5628 32.3294Z" fill="#FFF9F0"/>
<mask id="mask1_282_1048" style="mask-type:alpha" maskUnits="userSpaceOnUse" x="56" y="26" width="3" height="11">
<path d="M56.9955 34.9294C57.1976 33.6902 57.0797 32.7779 56.9955 32.4767H57.88C57.6272 32.7349 57.7536 33.8967 57.88 34.9294C57.9811 35.7556 57.7536 36.0482 57.6273 36.0912C57.3324 36.2203 56.7933 36.1687 56.9955 34.9294Z" fill="#18B6C2"/>
<path d="M57.88 32.3476H56.9955C56.9533 32.3476 56.8691 32.3218 56.8691 32.2185C56.8691 32.1152 56.9533 32.0894 56.9955 32.0894H57.88C57.9221 32.0894 58.0063 32.1152 58.0063 32.2185C58.0063 32.3218 57.9221 32.3476 57.88 32.3476Z" fill="#18B6C2"/>
<path d="M58.1327 31.8312H56.7427C56.7427 31.7022 56.6922 31.444 56.49 31.444C56.2878 31.444 56.3215 31.1858 56.3637 31.0567H58.5118C58.5539 31.1858 58.5876 31.444 58.3854 31.444C58.1832 31.444 58.1327 31.7022 58.1327 31.8312Z" fill="#18B6C2"/>
<path d="M56.1109 30.7985C56.1109 30.9018 56.1952 30.9276 56.2373 30.9276H58.6381C58.6803 30.9276 58.7645 30.9018 58.7645 30.7985C58.7645 30.6952 58.6803 30.6694 58.6381 30.6694H56.2373C56.1952 30.6694 56.1109 30.6952 56.1109 30.7985Z" fill="#18B6C2"/>
<path d="M57.6273 28.8622L57.5009 28.9912C56.7933 29.6109 56.7849 30.1961 56.8691 30.4112C56.2373 30.1531 55.6055 29.2494 56.6164 28.4749C57.4251 27.8552 57.543 27.27 57.5009 27.0549C58.5118 27.7778 58.4275 28.7331 58.2591 29.1203C58.4612 29.1203 58.5118 28.69 58.5118 28.4749L58.6381 28.7331C58.9414 29.9723 58.1748 30.3682 57.7536 30.4112C58.0569 29.8949 57.7957 29.1634 57.6273 28.8622Z" fill="#18B6C2"/>
<path d="M56.7427 26.4094C57.1639 26.5815 57.6778 27.2098 56.3637 28.3458C56.7006 28.0015 57.2482 27.1323 56.7427 26.4094Z" fill="#18B6C2"/>
<path d="M56.9955 34.9294C57.1976 33.6902 57.0797 32.7779 56.9955 32.4767H57.88C57.6272 32.7349 57.7536 33.8967 57.88 34.9294C57.9811 35.7556 57.7536 36.0482 57.6273 36.0912C57.3324 36.2203 56.7933 36.1687 56.9955 34.9294Z" stroke="#18B6C2" stroke-width="0.1"/>
<path d="M57.88 32.3476H56.9955C56.9533 32.3476 56.8691 32.3218 56.8691 32.2185C56.8691 32.1152 56.9533 32.0894 56.9955 32.0894H57.88C57.9221 32.0894 58.0063 32.1152 58.0063 32.2185C58.0063 32.3218 57.9221 32.3476 57.88 32.3476Z" stroke="#18B6C2" stroke-width="0.1"/>
<path d="M58.1327 31.8312H56.7427C56.7427 31.7022 56.6922 31.444 56.49 31.444C56.2878 31.444 56.3215 31.1858 56.3637 31.0567H58.5118C58.5539 31.1858 58.5876 31.444 58.3854 31.444C58.1832 31.444 58.1327 31.7022 58.1327 31.8312Z" stroke="#18B6C2" stroke-width="0.1"/>
<path d="M56.1109 30.7985C56.1109 30.9018 56.1952 30.9276 56.2373 30.9276H58.6381C58.6803 30.9276 58.7645 30.9018 58.7645 30.7985C58.7645 30.6952 58.6803 30.6694 58.6381 30.6694H56.2373C56.1952 30.6694 56.1109 30.6952 56.1109 30.7985Z" stroke="#18B6C2" stroke-width="0.1"/>
<path d="M57.6273 28.8622L57.5009 28.9912C56.7933 29.6109 56.7849 30.1961 56.8691 30.4112C56.2373 30.1531 55.6055 29.2494 56.6164 28.4749C57.4251 27.8552 57.543 27.27 57.5009 27.0549C58.5118 27.7778 58.4275 28.7331 58.2591 29.1203C58.4612 29.1203 58.5118 28.69 58.5118 28.4749L58.6381 28.7331C58.9414 29.9723 58.1748 30.3682 57.7536 30.4112C58.0569 29.8949 57.7957 29.1634 57.6273 28.8622Z" stroke="#18B6C2" stroke-width="0.1"/>
<path d="M56.7427 26.4094C57.1639 26.5815 57.6778 27.2098 56.3637 28.3458C56.7006 28.0015 57.2482 27.1323 56.7427 26.4094Z" stroke="#18B6C2" stroke-width="0.1"/>
</mask>
<g mask="url(#mask1_282_1048)">
<path d="M55.3364 25.8781H59.3799V35.1726L57.6109 35.4308C57.1348 35.5359 56.3473 35.689 56.2209 35.5599C56.0946 35.4308 55.3364 25.8781 55.3364 25.8781Z" fill="#73C134"/>
</g>
<path d="M44.657 53.1769C40.1461 53.1769 38.3247 52.0081 38.0735 51.8359C37.8224 51.6637 37.393 51.9769 37.8617 52.3212C38.4477 52.7517 41.472 53.8394 44.657 53.7865C49.8471 53.7004 51.6036 52.5626 52.0926 52.3212C52.5817 52.0798 52.3378 51.4702 51.9721 51.714C51.6063 51.9578 49.168 53.1769 44.657 53.1769Z" fill="url(#paint6_linear_282_1048)"/>
<path d="M69.9204 38.0924L72.8464 38.2142" stroke="#FFF9F0"/>
<path d="M46.7256 57.6875C47.9173 57.3305 47.7621 58.012 53.1903 55.9808C57.3428 54.427 65.1106 47.4194 66.3045 45.677C66.4828 45.4838 67.2194 45.4676 66.3837 45.2694C66.2926 45.2765 65.7525 44.297 65.8905 45.332C65.8905 45.4514 65.5182 45.693 65.2611 45.8623C61.8478 48.1099 60.1166 50.1602 55.8854 51.5909C51.6541 53.0216 51.7064 48.9229 52.7784 48.5518C53.8504 48.1806 57.2783 46.0492 58.7338 44.2617C60.1893 42.4741 64.3511 39.5158 66.6113 38.7385C69.8024 37.6416 78.7441 39.0265 78.7441 39.0265L77.6887 50.1745C77.6887 50.1745 70.8994 49.6208 69.0828 51.1357C64.9425 54.5886 60.8924 57.286 60.6273 57.4437C60.3622 57.6014 57.9251 58.6863 56.7259 59.1504C50.344 61.6265 46.3795 61.0609 45.8325 60.6042C44.5656 59.5471 45.5338 58.0445 46.7256 57.6875Z" fill="#73C134"/>
<path d="M15.397 38.2142L18.323 38.0923" stroke="#FFF9F0"/>
<path d="M43.0912 57.933C41.8994 57.5759 41.6726 58.3777 36.2444 56.3465C30.8161 54.3153 19.0952 42.3884 24.5403 45.4982C28.089 47.525 29.331 49.9191 33.5622 51.3498C37.7934 52.7806 37.7283 48.9245 36.6563 48.5534C35.5843 48.1822 32.1564 46.0508 30.7009 44.2633C29.2454 42.4757 25.0836 39.5174 22.8234 38.7401C19.6323 37.6432 10.6906 39.0281 10.6906 39.0281L11.746 50.1762C11.746 50.1762 18.5353 49.6224 20.3519 51.1374C24.4922 54.5902 24.9126 54.5682 28.9293 57.5672C30.7192 58.5189 31.3877 58.9317 32.5869 59.3959C38.9688 61.8719 43.1788 60.9923 43.7258 60.5356C44.9927 59.4785 44.2829 58.29 43.0912 57.933Z" fill="#0DB5D3"/>
<path d="M65.5824 43.4095C65.3548 43.1761 65.1052 43.4367 65.227 43.9142C65.6222 45.4641 66.5403 45.8535 68.0146 45.8058C69.4119 45.4291 68.5411 45.0627 68.5332 45.0615C67.0117 44.9495 66.0748 43.9143 65.5824 43.4095Z" fill="#FFF9F0"/>
<path d="M77.2417 68.1339C77.2284 67.6058 77.2217 67.1061 77.2217 66.6348C77.2217 66.1635 77.2484 65.5501 77.3019 64.7947C77.8735 64.7078 78.4317 64.6644 78.9765 64.6644V65.2811C78.5988 65.2811 78.2478 65.2928 77.9236 65.3162C77.9102 65.6905 77.9019 65.978 77.8985 66.1785C78.1526 66.1418 78.4534 66.1201 78.801 66.1134L78.8963 66.6649C78.6724 66.6682 78.3364 66.6933 77.8885 66.7401C77.8885 67.1412 77.8902 67.4303 77.8935 67.6075C78.1843 67.5841 78.532 67.534 78.9364 67.4571L79.0216 68.0086C78.7375 68.139 78.4016 68.2041 78.0139 68.2041L77.2417 68.1339Z" fill="#73C134"/>
<path d="M74.5425 68.159C74.5859 67.3568 74.6077 66.6415 74.6077 66.0131C74.6077 65.3847 74.606 64.9719 74.6026 64.7747C74.9703 64.6009 75.3531 64.514 75.7508 64.514C76.045 64.514 76.2906 64.6076 76.4879 64.7948C76.6884 64.9819 76.7887 65.246 76.7887 65.5869C76.7887 65.9814 76.5096 66.3607 75.9514 66.7251C76.2555 67.1061 76.5664 67.5256 76.8839 67.9836L76.4026 68.3395C76.192 68.022 75.8143 67.5039 75.2695 66.7852C75.2595 67.3 75.2444 67.783 75.2244 68.2342L74.5425 68.159ZM75.2845 66.4443C75.5319 66.3273 75.7425 66.1836 75.9163 66.0131C76.0901 65.8393 76.177 65.6822 76.177 65.5418C76.177 65.4014 76.1352 65.2928 76.0516 65.2159C75.9714 65.139 75.8645 65.1006 75.7308 65.1006C75.5971 65.1006 75.45 65.129 75.2895 65.1858C75.2895 65.7507 75.2879 66.1702 75.2845 66.4443Z" fill="#73C134"/>
<path d="M72.4867 66.9356C72.4867 67.1095 72.5251 67.2649 72.602 67.4019C72.6789 67.539 72.7691 67.6075 72.8728 67.6075C72.9797 67.6075 73.065 67.5607 73.1285 67.4671C73.192 67.3735 73.2371 67.2499 73.2638 67.0961C73.3106 66.8253 73.334 66.5128 73.334 66.1585C73.334 65.8009 73.3123 65.2777 73.2689 64.5892L73.9507 64.6594C73.9975 65.3479 74.0209 65.8159 74.0209 66.0632C74.0209 66.3106 74.0176 66.4844 74.0109 66.5847C74.0042 66.6816 73.9908 66.7953 73.9708 66.9256C73.9507 67.056 73.924 67.178 73.8906 67.2916C73.8571 67.4053 73.812 67.5189 73.7552 67.6326C73.6984 67.7462 73.6315 67.8432 73.5547 67.9234C73.3842 68.1072 73.1519 68.1991 72.8577 68.1991C72.5669 68.1991 72.3179 68.0688 72.1107 67.8081C71.9034 67.5473 71.7998 67.2565 71.7998 66.9356C71.7998 66.2304 71.8382 65.4783 71.9151 64.6794L72.597 64.7446C72.5235 65.4766 72.4867 66.207 72.4867 66.9356Z" fill="#73C134"/>
<path d="M70.3168 68.1239C70.2833 67.5323 70.2666 67.0175 70.2666 66.5797C70.2666 66.1384 70.2766 65.6788 70.2967 65.2008L69.685 65.2861L69.5747 64.7045C69.9023 64.6477 70.2265 64.6059 70.5474 64.5791L71.485 64.529L71.5802 65.0855C71.3964 65.0956 71.1892 65.1106 70.9585 65.1307C70.9385 65.612 70.9284 66.0532 70.9284 66.4543C70.9284 66.8554 70.9351 67.4303 70.9485 68.1791L70.3168 68.1239Z" fill="#73C134"/>
<path d="M67.8446 66.9356C67.8446 67.1095 67.8831 67.2649 67.9599 67.4019C68.0368 67.539 68.1271 67.6075 68.2307 67.6075C68.3376 67.6075 68.4229 67.5607 68.4864 67.4671C68.5499 67.3735 68.595 67.2499 68.6218 67.0961C68.6686 66.8253 68.6919 66.5128 68.6919 66.1585C68.6919 65.8009 68.6702 65.2777 68.6268 64.5892L69.3087 64.6594C69.3554 65.3479 69.3788 65.8159 69.3788 66.0632C69.3788 66.3106 69.3755 66.4844 69.3688 66.5847C69.3621 66.6816 69.3488 66.7953 69.3287 66.9256C69.3087 67.056 69.2819 67.178 69.2485 67.2916C69.2151 67.4053 69.1699 67.5189 69.1131 67.6326C69.0563 67.7462 68.9894 67.8432 68.9126 67.9234C68.7421 68.1072 68.5098 68.1991 68.2156 68.1991C67.9248 68.1991 67.6758 68.0688 67.4686 67.8081C67.2613 67.5473 67.1577 67.2565 67.1577 66.9356C67.1577 66.2304 67.1962 65.4783 67.273 64.6794L67.9549 64.7446C67.8814 65.4766 67.8446 66.207 67.8446 66.9356Z" fill="#73C134"/>
<path d="M66.8828 64.6644V65.2811C66.5084 65.2811 66.1574 65.2928 65.8299 65.3162C65.8232 65.4131 65.8165 65.5852 65.8098 65.8326C65.8065 66.0766 65.8031 66.227 65.7998 66.2838C66.1741 66.2337 66.475 66.2086 66.7023 66.2086L66.8026 66.7602C66.4282 66.7702 66.0923 66.7936 65.7948 66.8303C65.7948 67.3518 65.8015 67.8114 65.8148 68.2092L65.138 68.1339C65.1313 67.5925 65.1279 67.0894 65.1279 66.6248C65.1279 66.1602 65.1547 65.5501 65.2082 64.7947C65.7797 64.7078 66.3379 64.6644 66.8828 64.6644Z" fill="#73C134"/>
<path d="M62.7303 66.1234C62.7437 66.0566 62.7503 65.9479 62.7503 65.7975C62.7503 65.6438 62.7253 65.5034 62.6751 65.3763C62.625 65.246 62.5515 65.1808 62.4545 65.1808C62.3375 65.1808 62.2239 65.3329 62.1136 65.6371C62.0033 65.9379 61.9481 66.2621 61.9481 66.6098C61.9481 66.954 61.9816 67.2248 62.0484 67.422C62.1153 67.6159 62.2139 67.7128 62.3442 67.7128C62.4746 67.7128 62.5732 67.6526 62.64 67.5323C62.7069 67.412 62.757 67.2348 62.7905 67.0008C62.6701 67.0008 62.5414 67.0125 62.4044 67.0359L62.2991 66.5396C62.6033 66.5195 62.9843 66.4827 63.4423 66.4293C63.4623 66.6031 63.4723 66.7618 63.4723 66.9056C63.4723 67.0493 63.4289 67.2281 63.342 67.442C63.2584 67.656 63.1314 67.8448 62.9609 68.0086C62.7938 68.1724 62.61 68.2543 62.4094 68.2543C62.0618 68.2543 61.7827 68.1189 61.5721 67.8482C61.3649 67.5774 61.2612 67.1947 61.2612 66.7C61.2612 66.3357 61.3064 65.9947 61.3966 65.6772C61.4869 65.3596 61.6206 65.0989 61.7977 64.895C61.9749 64.6911 62.1771 64.5892 62.4044 64.5892C62.625 64.5892 62.8322 64.6694 63.0261 64.8298C63.1264 64.9134 63.2066 65.0337 63.2668 65.1908C63.3303 65.3446 63.362 65.5067 63.362 65.6772C63.362 65.8476 63.347 66.0131 63.3169 66.1735L62.7303 66.1234Z" fill="#0DB5D3"/>
<path d="M60.8401 64.5841L60.8451 66.9156C60.8451 67.3 60.8317 67.7128 60.805 68.154L60.2434 68.0988C59.8122 67.1195 59.4596 66.3858 59.1855 65.8978C59.1889 66.3925 59.1905 67.1813 59.1905 68.2643L58.6039 68.1991C58.5939 67.9919 58.5889 67.7913 58.5889 67.5975C58.5889 66.7886 58.634 65.846 58.7242 64.7697L59.3911 64.8348C59.722 65.7474 60.0195 66.4409 60.2835 66.9156C60.2635 65.9061 60.2401 65.1106 60.2134 64.529L60.8401 64.5841Z" fill="#0DB5D3"/>
<path d="M58.0526 64.6443C58.0225 65.1725 58.0074 65.7674 58.0074 66.4293C58.0074 67.0911 58.0292 67.6944 58.0726 68.2393L57.3957 68.1791C57.3523 67.4972 57.3306 66.8822 57.3306 66.334C57.3306 65.7825 57.3456 65.1992 57.3757 64.5842L58.0526 64.6443Z" fill="#0DB5D3"/>
<path d="M55.5606 64.5992C55.9517 64.5992 56.2525 64.7529 56.4631 65.0605C56.677 65.368 56.784 65.7407 56.784 66.1785C56.784 66.5161 56.7305 66.8354 56.6235 67.1362C56.5166 67.4337 56.3494 67.6844 56.1222 67.8883C55.8949 68.0888 55.6291 68.1891 55.3249 68.1891C55.2648 68.1891 55.0375 68.1657 54.6431 68.1189C54.6899 67.4002 54.7133 66.8053 54.7133 66.334C54.7133 65.8627 54.6982 65.3412 54.6681 64.7697C54.9924 64.656 55.2899 64.5992 55.5606 64.5992ZM55.4503 67.5774C55.6041 67.5774 55.7561 67.442 55.9066 67.1713C56.0603 66.8972 56.1372 66.603 56.1372 66.2888C56.1372 65.9713 56.082 65.7106 55.9717 65.5067C55.8648 65.3028 55.7361 65.2008 55.5857 65.2008C55.5054 65.2008 55.4302 65.2142 55.36 65.241C55.3734 65.7357 55.3801 66.1518 55.3801 66.4894C55.3801 66.8237 55.3701 67.173 55.35 67.5373C55.3734 67.564 55.4068 67.5774 55.4503 67.5774Z" fill="#0DB5D3"/>
<path d="M52.8499 68.0839C52.8064 67.3953 52.7847 66.7652 52.7847 66.1937C52.7847 65.6187 52.8031 65.0973 52.8398 64.6293L53.5067 64.6895C53.4565 65.2644 53.4315 65.8143 53.4315 66.3391C53.4315 66.8638 53.4398 67.2499 53.4565 67.4973C53.5769 67.4805 53.8727 67.4471 54.344 67.397L54.4443 67.9786C54.1936 68.0087 53.8392 68.0588 53.3813 68.129L52.8499 68.0839Z" fill="#0DB5D3"/>
<path d="M52.1424 64.6443C52.1123 65.1725 52.0973 65.7674 52.0973 66.4293C52.0973 67.0911 52.119 67.6944 52.1625 68.2393L51.4856 68.1791C51.4421 67.4972 51.4204 66.8822 51.4204 66.334C51.4204 65.7825 51.4355 65.1992 51.4655 64.5842L52.1424 64.6443Z" fill="#0DB5D3"/>
<path d="M49.2289 66.9356C49.2289 67.1095 49.2673 67.2649 49.3442 67.4019C49.4211 67.539 49.5113 67.6075 49.615 67.6075C49.7219 67.6075 49.8072 67.5607 49.8707 67.4671C49.9342 67.3735 49.9793 67.2499 50.006 67.0961C50.0528 66.8253 50.0762 66.5128 50.0762 66.1585C50.0762 65.8009 50.0545 65.2777 50.011 64.5892L50.6929 64.6594C50.7397 65.3479 50.7631 65.8159 50.7631 66.0632C50.7631 66.3106 50.7598 66.4844 50.7531 66.5847C50.7464 66.6816 50.733 66.7953 50.713 66.9256C50.6929 67.056 50.6662 67.178 50.6328 67.2916C50.5993 67.4053 50.5542 67.5189 50.4974 67.6326C50.4406 67.7462 50.3737 67.8432 50.2968 67.9234C50.1264 68.1072 49.8941 68.1991 49.5999 68.1991C49.3091 68.1991 49.0601 68.0688 48.8529 67.8081C48.6456 67.5473 48.542 67.2565 48.542 66.9356C48.542 66.2304 48.5804 65.4783 48.6573 64.6794L49.3392 64.7446C49.2657 65.4766 49.2289 66.207 49.2289 66.9356Z" fill="#0DB5D3"/>
<path d="M46.0127 64.7797C46.4038 64.6593 46.7565 64.5992 47.0707 64.5992C47.3882 64.5992 47.6573 64.6844 47.8779 64.8549C48.0985 65.022 48.2088 65.2293 48.2088 65.4766C48.2088 65.8476 48.0016 66.1418 47.5871 66.359C47.9748 66.5161 48.1687 66.7785 48.1687 67.1462C48.1687 67.417 48.0266 67.6593 47.7425 67.8732C47.4584 68.0838 47.1609 68.1891 46.85 68.1891C46.8099 68.1891 46.5241 68.1657 45.9927 68.1189C46.0395 67.4002 46.0629 66.7952 46.0629 66.3039C46.0629 65.8125 46.0462 65.3045 46.0127 64.7797ZM47.5319 65.5468C47.5319 65.4465 47.4818 65.363 47.3815 65.2961C47.2846 65.2259 47.1793 65.1908 47.0656 65.1908C46.9553 65.1908 46.8367 65.2109 46.7097 65.251C46.723 65.6521 46.7297 65.9546 46.7297 66.1585C46.8835 66.1451 47.0556 66.0766 47.2461 65.9529C47.4367 65.8259 47.5319 65.6905 47.5319 65.5468ZM46.9603 67.5774C47.0706 67.5774 47.1876 67.534 47.3113 67.447C47.435 67.3568 47.4968 67.2548 47.4968 67.1412C47.4968 67.0242 47.425 66.9223 47.2812 66.8354C47.1375 66.7484 46.952 66.695 46.7247 66.6749C46.718 67.0693 46.7113 67.3652 46.7046 67.5624C46.7648 67.5724 46.85 67.5774 46.9603 67.5774Z" fill="#0DB5D3"/>
<path d="M43.5519 67.412L44.1123 67.6108C44.0842 67.885 43.9746 68.2962 43.7836 68.8445L43.396 68.8129C43.4718 68.3188 43.5238 67.8518 43.5519 67.412Z" fill="#73C134"/>
<path d="M42.2647 65.9229C42.3081 65.7591 42.3298 65.622 42.3298 65.5117C42.3298 65.4014 42.2998 65.3112 42.2396 65.241C42.1794 65.1675 42.1009 65.1307 42.0039 65.1307C41.9103 65.1307 41.8318 65.1775 41.7683 65.2711C41.7048 65.3647 41.673 65.4716 41.673 65.592C41.673 65.8259 41.8067 66.0265 42.0741 66.1936C42.3415 66.3674 42.5237 66.4928 42.6206 66.5697C42.7176 66.6465 42.7861 66.7167 42.8262 66.7802C42.9265 66.944 42.9766 67.1128 42.9766 67.2866C42.9766 67.5875 42.8747 67.8281 42.6708 68.0086C42.4702 68.1858 42.2429 68.2744 41.9889 68.2744C41.6881 68.2744 41.4357 68.1473 41.2318 67.8933C41.0847 67.7095 40.9494 67.4805 40.8257 67.2064L41.312 66.9708C41.3889 67.1713 41.4842 67.3418 41.5978 67.4822C41.7148 67.6192 41.8385 67.6877 41.9688 67.6877C42.0524 67.6877 42.1276 67.661 42.1945 67.6075C42.2613 67.554 42.2947 67.4738 42.2947 67.3669C42.2947 67.2566 42.253 67.1546 42.1694 67.061C42.0858 66.9674 41.9739 66.8722 41.8335 66.7752C41.6931 66.6783 41.5844 66.5997 41.5076 66.5396C41.4307 66.4761 41.3455 66.3958 41.2519 66.2989C41.0747 66.1117 40.9861 65.8727 40.9861 65.5819C40.9861 65.2878 41.0881 65.0421 41.292 64.8449C41.4959 64.6443 41.7382 64.5441 42.019 64.5441C42.2998 64.5441 42.5354 64.6527 42.7259 64.87C42.9198 65.0872 43.0167 65.3112 43.0167 65.5418C43.0167 65.7691 42.9733 65.9647 42.8864 66.1284L42.2647 65.9229Z" fill="#73C134"/>
<path d="M38.8838 68.1339C38.8705 67.6058 38.8638 67.1061 38.8638 66.6348C38.8638 66.1635 38.8905 65.5501 38.944 64.7947C39.5156 64.7078 40.0738 64.6644 40.6186 64.6644V65.2811C40.2409 65.2811 39.8899 65.2928 39.5657 65.3162C39.5523 65.6905 39.544 65.978 39.5406 66.1785C39.7947 66.1418 40.0955 66.1201 40.4431 66.1134L40.5384 66.6649C40.3144 66.6682 39.9785 66.6933 39.5306 66.7401C39.5306 67.1412 39.5323 67.4303 39.5356 67.6075C39.8264 67.5841 40.1741 67.534 40.5785 67.4571L40.6637 68.0086C40.3796 68.139 40.0437 68.2041 39.656 68.2041L38.8838 68.1339Z" fill="#73C134"/>
<path d="M36.9905 68.0839C36.947 67.3953 36.9253 66.7652 36.9253 66.1937C36.9253 65.6187 36.9437 65.0973 36.9804 64.6293L37.6473 64.6895C37.5971 65.2644 37.5721 65.8143 37.5721 66.3391C37.5721 66.8638 37.5804 67.2499 37.5971 67.4973C37.7175 67.4805 38.0133 67.4471 38.4846 67.397L38.5849 67.9786C38.3342 68.0087 37.9799 68.0588 37.5219 68.129L36.9905 68.0839Z" fill="#73C134"/>
<path d="M36.283 64.6443C36.2529 65.1725 36.2379 65.7674 36.2379 66.4293C36.2379 67.0911 36.2596 67.6944 36.3031 68.2393L35.6262 68.1791C35.5828 67.4972 35.561 66.8822 35.561 66.334C35.561 65.7825 35.5761 65.1992 35.6062 64.5842L36.283 64.6443Z" fill="#73C134"/>
<path d="M32.1343 68.144C32.1076 67.2749 32.0942 66.6198 32.0942 66.1786C32.0942 65.7373 32.1226 65.266 32.1795 64.7647L33.1221 64.8399C33.2391 65.261 33.3627 65.851 33.4931 66.6097C33.6803 65.9981 33.8457 65.3362 33.9895 64.6243L34.9371 64.7095C34.9638 65.7424 34.9772 66.4978 34.9772 66.9758C34.9772 67.4504 34.9622 67.8732 34.9321 68.2443L34.2452 68.1791C34.2886 67.7579 34.3254 66.8655 34.3555 65.5017L34.3154 65.4967C34.2819 65.627 34.2285 65.851 34.1549 66.1685C34.0012 66.827 33.8524 67.3886 33.7087 67.8532L33.2524 67.8131C33.1722 67.4922 33.0786 67.0777 32.9717 66.5696C32.868 66.0582 32.7878 65.6822 32.731 65.4415L32.6909 65.4365C32.721 66.5529 32.7561 67.4755 32.7962 68.2041L32.1343 68.144Z" fill="#73C134"/>
<path d="M30.9888 65.9229C31.0322 65.7591 31.054 65.622 31.054 65.5117C31.054 65.4014 31.0239 65.3112 30.9637 65.241C30.9035 65.1675 30.825 65.1307 30.7281 65.1307C30.6345 65.1307 30.5559 65.1775 30.4924 65.2711C30.4289 65.3647 30.3971 65.4716 30.3971 65.592C30.3971 65.8259 30.5308 66.0265 30.7982 66.1936C31.0657 66.3674 31.2478 66.4928 31.3448 66.5697C31.4417 66.6465 31.5102 66.7167 31.5503 66.7802C31.6506 66.944 31.7007 67.1128 31.7007 67.2866C31.7007 67.5875 31.5988 67.8281 31.3949 68.0086C31.1943 68.1858 30.967 68.2744 30.713 68.2744C30.4122 68.2744 30.1598 68.1473 29.9559 67.8933C29.8089 67.7095 29.6735 67.4805 29.5498 67.2064L30.0361 66.9708C30.113 67.1713 30.2083 67.3418 30.3219 67.4822C30.4389 67.6192 30.5626 67.6877 30.693 67.6877C30.7765 67.6877 30.8517 67.661 30.9186 67.6075C30.9854 67.554 31.0189 67.4738 31.0189 67.3669C31.0189 67.2566 30.9771 67.1546 30.8935 67.061C30.8099 66.9674 30.698 66.8722 30.5576 66.7752C30.4172 66.6783 30.3086 66.5997 30.2317 66.5396C30.1548 66.4761 30.0696 66.3958 29.976 66.2989C29.7988 66.1117 29.7102 65.8727 29.7102 65.5819C29.7102 65.2878 29.8122 65.0421 30.0161 64.8449C30.22 64.6443 30.4623 64.5441 30.7431 64.5441C31.0239 64.5441 31.2595 64.6527 31.45 64.87C31.6439 65.0872 31.7409 65.3112 31.7409 65.5418C31.7409 65.7691 31.6974 65.9647 31.6105 66.1284L30.9888 65.9229Z" fill="#73C134"/>
<path d="M27.4324 66.1234C27.4458 66.0566 27.4525 65.9479 27.4525 65.7975C27.4525 65.6438 27.4274 65.5034 27.3773 65.3763C27.3271 65.246 27.2536 65.1808 27.1567 65.1808C27.0397 65.1808 26.926 65.3329 26.8157 65.6371C26.7054 65.9379 26.6503 66.2621 26.6503 66.6098C26.6503 66.954 26.6837 67.2248 26.7506 67.422C26.8174 67.6159 26.916 67.7128 27.0464 67.7128C27.1767 67.7128 27.2753 67.6526 27.3422 67.5323C27.409 67.412 27.4592 67.2348 27.4926 67.0008C27.3723 67.0008 27.2436 67.0125 27.1065 67.0359L27.0012 66.5396C27.3054 66.5195 27.6865 66.4827 28.1444 66.4293C28.1645 66.6031 28.1745 66.7618 28.1745 66.9056C28.1745 67.0493 28.131 67.2281 28.0441 67.442C27.9606 67.656 27.8335 67.8448 27.6631 68.0086C27.4959 68.1724 27.3121 68.2543 27.1115 68.2543C26.7639 68.2543 26.4848 68.1189 26.2742 67.8482C26.067 67.5774 25.9634 67.1947 25.9634 66.7C25.9634 66.3357 26.0085 65.9947 26.0988 65.6772C26.189 65.3596 26.3227 65.0989 26.4999 64.895C26.677 64.6911 26.8792 64.5892 27.1065 64.5892C27.3271 64.5892 27.5344 64.6694 27.7283 64.8298C27.8285 64.9134 27.9087 65.0337 27.9689 65.1908C28.0324 65.3446 28.0642 65.5067 28.0642 65.6772C28.0642 65.8476 28.0491 66.0131 28.0191 66.1735L27.4324 66.1234Z" fill="#0DB5D3"/>
<path d="M25.5427 64.5841L25.5477 66.9156C25.5477 67.3 25.5344 67.7128 25.5076 68.154L24.9461 68.0988C24.5149 67.1195 24.1622 66.3858 23.8882 65.8978C23.8915 66.3925 23.8932 67.1813 23.8932 68.2643L23.3065 68.1991C23.2965 67.9919 23.2915 67.7913 23.2915 67.5975C23.2915 66.7886 23.3366 65.846 23.4269 64.7697L24.0937 64.8348C24.4246 65.7474 24.7221 66.4409 24.9862 66.9156C24.9661 65.9061 24.9427 65.1106 24.916 64.529L25.5427 64.5841Z" fill="#0DB5D3"/>
<path d="M22.7547 64.6443C22.7246 65.1725 22.7096 65.7674 22.7096 66.4293C22.7096 67.0911 22.7313 67.6944 22.7748 68.2393L22.0979 68.1791C22.0544 67.4972 22.0327 66.8822 22.0327 66.334C22.0327 65.7825 22.0478 65.1992 22.0778 64.5842L22.7547 64.6443Z" fill="#0DB5D3"/>
<path d="M20.7591 66.1234C20.7725 66.0566 20.7791 65.9479 20.7791 65.7975C20.7791 65.6438 20.7541 65.5034 20.7039 65.3763C20.6538 65.246 20.5803 65.1808 20.4833 65.1808C20.3663 65.1808 20.2527 65.3329 20.1424 65.6371C20.0321 65.9379 19.9769 66.2621 19.9769 66.6098C19.9769 66.954 20.0104 67.2248 20.0772 67.422C20.1441 67.6159 20.2427 67.7128 20.373 67.7128C20.5034 67.7128 20.602 67.6526 20.6688 67.5323C20.7357 67.412 20.7858 67.2348 20.8193 67.0008C20.6989 67.0008 20.5702 67.0125 20.4332 67.0359L20.3279 66.5396C20.6321 66.5195 21.0131 66.4827 21.4711 66.4293C21.4911 66.6031 21.5011 66.7618 21.5011 66.9056C21.5011 67.0493 21.4577 67.2281 21.3708 67.442C21.2872 67.656 21.1602 67.8448 20.9897 68.0086C20.8226 68.1724 20.6388 68.2543 20.4382 68.2543C20.0906 68.2543 19.8115 68.1189 19.6009 67.8482C19.3937 67.5774 19.29 67.1947 19.29 66.7C19.29 66.3357 19.3352 65.9947 19.4254 65.6772C19.5157 65.3596 19.6494 65.0989 19.8265 64.895C20.0037 64.6911 20.2059 64.5892 20.4332 64.5892C20.6538 64.5892 20.861 64.6694 21.0549 64.8298C21.1552 64.9134 21.2354 65.0337 21.2956 65.1908C21.3591 65.3446 21.3908 65.5067 21.3908 65.6772C21.3908 65.8476 21.3758 66.0131 21.3457 66.1735L20.7591 66.1234Z" fill="#0DB5D3"/>
<path d="M18.8689 64.5841L18.8739 66.9156C18.8739 67.3 18.8605 67.7128 18.8338 68.154L18.2722 68.0988C17.8411 67.1195 17.4884 66.3858 17.2143 65.8978C17.2177 66.3925 17.2193 67.1813 17.2193 68.2643L16.6327 68.1991C16.6227 67.9919 16.6177 67.7913 16.6177 67.5975C16.6177 66.7886 16.6628 65.846 16.753 64.7697L17.4199 64.8348C17.7508 65.7474 18.0483 66.4409 18.3124 66.9156C18.2923 65.9061 18.2689 65.1106 18.2422 64.529L18.8689 64.5841Z" fill="#0DB5D3"/>
<path d="M16.0809 64.6443C16.0508 65.1725 16.0358 65.7674 16.0358 66.4293C16.0358 67.0911 16.0575 67.6944 16.1009 68.2393L15.4241 68.1791C15.3806 67.4972 15.3589 66.8822 15.3589 66.334C15.3589 65.7825 15.3739 65.1992 15.404 64.5842L16.0809 64.6443Z" fill="#0DB5D3"/>
<path d="M12.5894 68.159C12.6328 67.3568 12.6545 66.6415 12.6545 66.0131C12.6545 65.3847 12.6529 64.9719 12.6495 64.7747C13.0172 64.6009 13.3999 64.514 13.7977 64.514C14.0918 64.514 14.3375 64.6076 14.5347 64.7948C14.7353 64.9819 14.8356 65.246 14.8356 65.5869C14.8356 65.9814 14.5565 66.3607 13.9982 66.7251C14.3024 67.1061 14.6133 67.5256 14.9308 67.9836L14.4495 68.3395C14.2389 68.022 13.8612 67.5039 13.3164 66.7852C13.3063 67.3 13.2913 67.783 13.2712 68.2342L12.5894 68.159ZM13.3314 66.4443C13.5788 66.3273 13.7893 66.1836 13.9631 66.0131C14.137 65.8393 14.2239 65.6822 14.2239 65.5418C14.2239 65.4014 14.1821 65.2928 14.0985 65.2159C14.0183 65.139 13.9113 65.1006 13.7776 65.1006C13.6439 65.1006 13.4969 65.129 13.3364 65.1858C13.3364 65.7507 13.3347 66.1702 13.3314 66.4443Z" fill="#0DB5D3"/>
<path d="M10.0201 64.7797C10.4111 64.6593 10.7638 64.5992 11.078 64.5992C11.3955 64.5992 11.6646 64.6844 11.8852 64.8549C12.1058 65.022 12.2161 65.2293 12.2161 65.4766C12.2161 65.8476 12.0089 66.1418 11.5944 66.359C11.9821 66.5161 12.176 66.7785 12.176 67.1462C12.176 67.417 12.0339 67.6593 11.7498 67.8732C11.4657 68.0838 11.1682 68.1891 10.8574 68.1891C10.8173 68.1891 10.5315 68.1657 10 68.1189C10.0468 67.4002 10.0702 66.7952 10.0702 66.3039C10.0702 65.8125 10.0535 65.3045 10.0201 64.7797ZM11.5392 65.5468C11.5392 65.4465 11.4891 65.363 11.3888 65.2961C11.2919 65.2259 11.1866 65.1908 11.073 65.1908C10.9627 65.1908 10.844 65.2109 10.717 65.251C10.7303 65.6521 10.737 65.9546 10.737 66.1585C10.8908 66.1451 11.0629 66.0766 11.2535 65.9529C11.444 65.8259 11.5392 65.6905 11.5392 65.5468ZM10.9677 67.5774C11.078 67.5774 11.195 67.534 11.3186 67.447C11.4423 67.3568 11.5042 67.2548 11.5042 67.1412C11.5042 67.0242 11.4323 66.9223 11.2886 66.8354C11.1448 66.7484 10.9593 66.695 10.732 66.6749C10.7253 67.0693 10.7187 67.3652 10.712 67.5624C10.7721 67.5724 10.8574 67.5774 10.9677 67.5774Z" fill="#0DB5D3"/>
<defs>
<linearGradient id="paint0_linear_282_1048" x1="203.211" y1="34.981" x2="218.515" y2="34.981" gradientUnits="userSpaceOnUse">
<stop stop-color="#73C134"/>
<stop offset="1" stop-color="#0DB5D3"/>
</linearGradient>
<linearGradient id="paint1_linear_282_1048" x1="187.442" y1="34.981" x2="194.399" y2="34.981" gradientUnits="userSpaceOnUse">
<stop stop-color="#73C134"/>
<stop offset="1" stop-color="#0DB5D3"/>
</linearGradient>
<linearGradient id="paint2_linear_282_1048" x1="169.184" y1="34.981" x2="184.951" y2="34.981" gradientUnits="userSpaceOnUse">
<stop stop-color="#73C134"/>
<stop offset="1" stop-color="#0DB5D3"/>
</linearGradient>
<linearGradient id="paint3_linear_282_1048" x1="129.762" y1="34.4732" x2="145.993" y2="34.4732" gradientUnits="userSpaceOnUse">
<stop stop-color="#73C134"/>
<stop offset="1" stop-color="#0DB5D3"/>
</linearGradient>
<linearGradient id="paint4_linear_282_1048" x1="45.1212" y1="4.20801" x2="45.1212" y2="45.332" gradientUnits="userSpaceOnUse">
<stop stop-color="#0DB5D3"/>
<stop offset="1" stop-color="#73C134"/>
</linearGradient>
<linearGradient id="paint5_linear_282_1048" x1="45.1212" y1="4.20801" x2="45.1212" y2="45.332" gradientUnits="userSpaceOnUse">
<stop stop-color="#0DB5D3"/>
<stop offset="1" stop-color="#73C134"/>
</linearGradient>
<linearGradient id="paint6_linear_282_1048" x1="47.2173" y1="53.2988" x2="43.8036" y2="53.4207" gradientUnits="userSpaceOnUse">
<stop stop-color="#73C134"/>
<stop offset="1" stop-color="#00AFCE"/>
</linearGradient>
</defs>
</svg>
